<svg width="552" height="523" viewBox="0 0 552 523" fill="none" xmlns="http://www.w3.org/2000/svg">
<path d="M507.223 406.03C509.735 400.15 510.603 396.734 507.223 389.578L217.223 223.074C210.275 219.779 206.375 219.698 199.427 223.074L0.381989 338.903C-0.664764 346.087 0.440674 349.19 3.67743 354.039L291.7 519.885C298.871 523.331 303.031 524.391 311.472 519.885L507.223 406.03Z" fill="url(#paint0_radial_609_8)"/>
<path d="M498.774 171.751C498.774 159.925 488.722 155.195 488.722 155.195L229.737 5.59839C224.11 6.0541 223.547 8.25289 223.233 12.6939V68.8665V215.507C223.711 221.096 225.221 223.507 229.737 226.741L491.087 377.52C497 379.294 498.774 373.972 498.774 373.972V368.06V347.364V171.751Z" fill="#272626"/>
<path d="M491.088 391.711C493.342 386.428 494.121 383.359 491.088 376.929L230.92 227.332C224.687 224.372 221.188 224.299 214.955 227.332L36.3852 331.4C35.4461 337.854 36.4378 340.642 39.3416 344.999L297.736 494.004C304.17 497.101 307.902 498.054 315.474 494.004L491.088 391.711Z" fill="#716F72"/>
<path d="M295.962 486.909C304.322 491.45 309.328 491.522 319.022 485.726L491.679 384.615C492.285 382.077 492.351 380.65 491.679 378.111L229.146 226.15C223.674 224.617 220.91 224.947 216.137 226.15L38.1589 329.626C35.1061 332.65 35.69 334.099 36.385 336.721L295.962 486.909Z" fill="#949397"/>
<path d="M258.119 397.033L194.851 359.781C192.279 358.245 190.708 358.384 187.755 359.781L146.956 384.615C145.02 386.03 145.235 386.957 146.956 388.755L209.042 425.415C212.178 426.789 213.986 427.421 218.502 424.823L258.71 400.58C259.292 398.698 259.248 397.871 258.119 397.033Z" fill="#C1C0C4"/>
<path d="M362.319 433.124C363.595 432.312 363.542 430.431 362.222 429.692L336.56 415.321C335.95 414.98 335.207 414.981 334.598 415.325L328.778 418.615L325.05 420.722C323.697 421.487 323.695 423.434 325.045 424.202L337.056 431.032L351.088 439.01C351.731 439.376 352.525 439.357 353.15 438.959L362.319 433.124Z" fill="#151925"/>
<path d="M486.948 169.977L233.285 20.9717V213.141L486.948 363.329V169.977Z" fill="white"/>
<path d="M487.54 169.386L413.628 125.039C312.153 127.036 280.502 153.731 238.606 216.098L487.54 363.329V169.386Z" fill="#DADADA"/>
<path d="M391.256 414.817C392.541 414 392.477 412.103 391.14 411.374L375.57 402.881C374.968 402.553 374.24 402.556 373.641 402.889L369.282 405.311L364.398 408.316C363.121 409.102 363.131 410.963 364.417 411.734L366.03 412.702L380.061 420.68C380.705 421.047 381.498 421.027 382.123 420.629L391.256 414.817Z" fill="#151925"/>
<path d="M390.734 415.15C392.253 414.183 392.178 411.94 390.597 411.078L375.746 402.978C375.035 402.59 374.174 402.593 373.465 402.987L369.282 405.311L364.91 408.001C363.399 408.931 363.411 411.131 364.933 412.044L366.03 412.702L379.87 420.572C380.631 421.005 381.57 420.981 382.309 420.511L390.734 415.15Z" fill="#151925"/>
<path d="M181.939 310.75C183.224 309.933 183.16 308.036 181.823 307.307L166.253 298.814C165.651 298.486 164.923 298.489 164.324 298.822L159.965 301.244L155.081 304.249C153.803 305.035 153.814 306.896 155.1 307.667L156.713 308.635L170.744 316.613C171.388 316.979 172.181 316.96 172.806 316.562L181.939 310.75Z" fill="#151925"/>
<path d="M181.417 311.083C182.936 310.116 182.861 307.873 181.28 307.011L166.429 298.911C165.718 298.522 164.857 298.526 164.148 298.919L159.965 301.244L155.593 303.934C154.082 304.864 154.094 307.064 155.615 307.976L156.713 308.635L170.553 316.505C171.314 316.938 172.253 316.914 172.992 316.444L181.417 311.083Z" fill="#151925"/>
<path d="M225.695 285.916C226.979 285.098 226.915 283.202 225.579 282.473L210.008 273.98C209.407 273.652 208.679 273.655 208.079 273.988L203.72 276.409L198.837 279.415C197.559 280.201 197.57 282.061 198.856 282.833L200.468 283.8L214.499 291.779C215.143 292.145 215.937 292.125 216.562 291.728L225.695 285.916Z" fill="#151925"/>
<path d="M225.172 286.248C226.692 285.281 226.616 283.039 225.035 282.177L210.185 274.076C209.473 273.688 208.612 273.692 207.904 274.085L203.72 276.409L199.348 279.1C197.838 280.029 197.85 282.23 199.371 283.142L200.468 283.8L214.308 291.67C215.07 292.103 216.008 292.08 216.747 291.61L225.172 286.248Z" fill="#151925"/>
<path d="M330.678 415.323C331.871 414.507 331.831 412.733 330.601 411.972L321.928 406.603C321.242 406.178 320.369 406.207 319.713 406.676L316.657 408.859L314.292 410.632L312.54 411.884C311.393 412.703 311.431 414.42 312.613 415.188L320.86 420.549C321.537 420.989 322.413 420.978 323.079 420.522L330.678 415.323Z" fill="#151925"/>
<path d="M313.53 337.273C314.724 336.456 314.683 334.683 313.454 333.922L304.78 328.552C304.095 328.128 303.221 328.157 302.565 328.625L299.509 330.808L297.144 332.582L295.393 333.833C294.246 334.652 294.283 336.369 295.465 337.137L303.712 342.498C304.39 342.938 305.265 342.928 305.932 342.472L313.53 337.273Z" fill="#151925"/>
<path d="M295.792 344.368C296.985 343.552 296.944 341.778 295.715 341.017L287.041 335.648C286.356 335.224 285.482 335.252 284.826 335.721L281.771 337.904L279.405 339.678L277.654 340.929C276.507 341.748 276.545 343.465 277.726 344.233L285.974 349.594C286.651 350.034 287.526 350.024 288.193 349.568L295.792 344.368Z" fill="#151925"/>
<path d="M291.061 358.559C292.255 357.743 292.214 355.969 290.985 355.208L282.311 349.839C281.626 349.414 280.752 349.443 280.096 349.912L277.04 352.095L274.675 353.869L272.924 355.12C271.777 355.939 271.814 357.656 272.996 358.424L281.243 363.785C281.921 364.225 282.796 364.215 283.463 363.758L291.061 358.559Z" fill="#151925"/>
<path d="M285.149 370.385C286.342 369.569 286.301 367.795 285.072 367.034L276.398 361.665C275.713 361.24 274.839 361.269 274.183 361.738L271.127 363.921L268.762 365.694L267.011 366.946C265.864 367.765 265.901 369.482 267.083 370.25L275.331 375.611C276.008 376.051 276.883 376.041 277.55 375.584L285.149 370.385Z" fill="#151925"/>
<path d="M160.978 317.169C162.171 316.353 162.13 314.579 160.901 313.818L152.227 308.449C151.542 308.024 150.668 308.053 150.012 308.522L146.956 310.704L144.591 312.478L142.84 313.729C141.693 314.548 141.73 316.265 142.912 317.034L151.159 322.394C151.837 322.835 152.712 322.824 153.379 322.368L160.978 317.169Z" fill="#151925"/>
<path d="M145.604 308.891C146.797 308.075 146.757 306.301 145.527 305.54L136.854 300.17C136.168 299.746 135.295 299.775 134.639 300.243L131.583 302.426L129.218 304.2L127.466 305.451C126.319 306.27 126.357 307.987 127.539 308.756L135.786 314.116C136.463 314.556 137.339 314.546 138.005 314.09L145.604 308.891Z" fill="#151925"/>
<path d="M224.837 337.273C226.03 336.456 225.99 334.683 224.76 333.922L216.087 328.552C215.401 328.128 214.528 328.157 213.871 328.625L210.816 330.808L208.451 332.582L206.699 333.833C205.552 334.652 205.59 336.369 206.771 337.137L215.019 342.498C215.696 342.938 216.572 342.928 217.238 342.472L224.837 337.273Z" fill="#151925"/>
<path d="M209.463 327.812C210.657 326.996 210.616 325.222 209.387 324.461L200.713 319.092C200.027 318.667 199.154 318.696 198.498 319.165L195.442 321.347L193.077 323.121L191.325 324.372C190.178 325.192 190.216 326.908 191.398 327.677L199.645 333.037C200.323 333.478 201.198 333.467 201.865 333.011L209.463 327.812Z" fill="#151925"/>
<path d="M195.272 319.534C196.466 318.718 196.425 316.944 195.196 316.183L186.522 310.814C185.837 310.39 184.963 310.418 184.307 310.887L181.251 313.07L178.886 314.844L177.135 316.095C175.988 316.914 176.025 318.631 177.207 319.399L185.454 324.76C186.132 325.2 187.007 325.19 187.674 324.734L195.272 319.534Z" fill="#151925"/>
<path d="M160.978 299.43C162.171 298.614 162.13 296.84 160.901 296.079L152.227 290.71C151.542 290.285 150.668 290.314 150.012 290.783L146.956 292.965L144.591 294.739L142.84 295.99C141.693 296.81 141.73 298.527 142.912 299.295L151.159 304.656C151.837 305.096 152.712 305.085 153.379 304.629L160.978 299.43Z" fill="#151925"/>
<path d="M175.168 291.152C176.362 290.336 176.321 288.562 175.092 287.801L166.418 282.432C165.733 282.007 164.859 282.036 164.203 282.505L161.147 284.687L158.782 286.461L157.031 287.712C155.884 288.532 155.921 290.249 157.103 291.017L165.35 296.378C166.028 296.818 166.903 296.807 167.57 296.351L175.168 291.152Z" fill="#151925"/>
<path d="M190.542 282.874C191.735 282.058 191.695 280.284 190.466 279.523L181.792 274.154C181.106 273.729 180.233 273.758 179.577 274.227L176.521 276.409L174.156 278.183L172.404 279.434C171.257 280.254 171.295 281.97 172.477 282.739L180.724 288.099C181.401 288.54 182.277 288.529 182.944 288.073L190.542 282.874Z" fill="#151925"/>
<path d="M203.55 274.596C204.744 273.78 204.703 272.006 203.474 271.245L194.8 265.876C194.115 265.451 193.241 265.48 192.585 265.949L189.529 268.131L187.164 269.905L185.413 271.156C184.266 271.975 184.303 273.692 185.485 274.461L193.732 279.821C194.41 280.262 195.285 280.251 195.952 279.795L203.55 274.596Z" fill="#151925"/>
<path d="M246.123 332.543C247.316 331.726 247.276 329.952 246.047 329.191L237.373 323.822C236.687 323.398 235.814 323.426 235.158 323.895L232.102 326.078L229.737 327.852L227.985 329.103C226.838 329.922 226.876 331.639 228.058 332.407L236.305 337.768C236.982 338.208 237.858 338.198 238.525 337.742L246.123 332.543Z" fill="#151925"/>
<path d="M230.75 323.082C231.943 322.265 231.902 320.492 230.673 319.731L221.999 314.361C221.314 313.937 220.44 313.966 219.784 314.434L216.729 316.617L214.363 318.391L212.612 319.642C211.465 320.461 211.503 322.178 212.684 322.946L220.932 328.307C221.609 328.747 222.484 328.737 223.151 328.281L230.75 323.082Z" fill="#151925"/>
<path d="M215.376 314.804C216.569 313.988 216.529 312.214 215.3 311.453L206.626 306.084C205.94 305.659 205.067 305.688 204.411 306.157L201.355 308.339L198.99 310.113L197.238 311.364C196.091 312.184 196.129 313.9 197.311 314.669L205.558 320.029C206.235 320.47 207.111 320.459 207.778 320.003L215.376 314.804Z" fill="#151925"/>
<path d="M203.55 291.152C204.744 290.336 204.703 288.562 203.474 287.801L194.8 282.432C194.115 282.007 193.241 282.036 192.585 282.505L189.529 284.687L187.164 286.461L185.413 287.712C184.266 288.532 184.303 290.249 185.485 291.017L193.732 296.378C194.41 296.818 195.285 296.807 195.952 296.351L203.55 291.152Z" fill="#151925"/>
<path d="M265.045 326.63C266.238 325.813 266.197 324.04 264.968 323.279L256.294 317.909C255.609 317.485 254.735 317.514 254.079 317.982L251.023 320.165L248.658 321.939L246.907 323.19C245.76 324.009 245.797 325.726 246.979 326.494L255.227 331.855C255.904 332.295 256.779 332.285 257.446 331.829L265.045 326.63Z" fill="#151925"/>
<path d="M249.671 317.169C250.864 316.353 250.824 314.579 249.594 313.818L240.921 308.449C240.235 308.024 239.362 308.053 238.706 308.522L235.65 310.704L233.285 312.478L231.533 313.729C230.386 314.548 230.424 316.265 231.606 317.034L239.853 322.394C240.53 322.835 241.406 322.824 242.072 322.368L249.671 317.169Z" fill="#151925"/>
<path d="M234.298 308.891C235.491 308.075 235.45 306.301 234.221 305.54L225.547 300.17C224.862 299.746 223.988 299.775 223.332 300.243L220.276 302.426L217.911 304.2L216.16 305.451C215.013 306.27 215.05 307.987 216.232 308.756L224.48 314.116C225.157 314.556 226.032 314.546 226.699 314.09L234.298 308.891Z" fill="#151925"/>
<path d="M220.107 299.43C221.3 298.614 221.259 296.84 220.03 296.079L211.356 290.71C210.671 290.285 209.797 290.314 209.141 290.783L206.085 292.965L203.72 294.739L201.969 295.99C200.822 296.81 200.859 298.527 202.041 299.295L210.289 304.656C210.966 305.096 211.841 305.085 212.508 304.629L220.107 299.43Z" fill="#151925"/>
<path d="M299.34 328.995C300.533 328.178 300.492 326.405 299.263 325.644L290.589 320.274C289.904 319.85 289.03 319.879 288.374 320.347L285.318 322.53L282.953 324.304L281.202 325.555C280.055 326.374 280.092 328.091 281.274 328.859L289.522 334.22C290.199 334.66 291.074 334.65 291.741 334.194L299.34 328.995Z" fill="#151925"/>
<path d="M283.966 320.717C285.159 319.9 285.119 318.126 283.889 317.365L275.216 311.996C274.53 311.572 273.657 311.6 273.001 312.069L269.945 314.252L267.58 316.026L265.828 317.277C264.681 318.096 264.719 319.813 265.901 320.581L274.148 325.942C274.825 326.382 275.701 326.372 276.367 325.916L283.966 320.717Z" fill="#151925"/>
<path d="M269.775 311.256C270.968 310.44 270.928 308.666 269.698 307.905L261.025 302.535C260.339 302.111 259.466 302.14 258.809 302.608L255.754 304.791L253.389 306.565L251.637 307.816C250.49 308.635 250.528 310.352 251.709 311.12L259.957 316.481C260.634 316.921 261.51 316.911 262.176 316.455L269.775 311.256Z" fill="#151925"/>
<path d="M253.219 302.978C254.412 302.161 254.371 300.388 253.142 299.627L244.468 294.257C243.783 293.833 242.909 293.862 242.253 294.33L239.198 296.513L236.832 298.287L235.081 299.538C233.934 300.357 233.972 302.074 235.153 302.842L243.401 308.203C244.078 308.643 244.953 308.633 245.62 308.177L253.219 302.978Z" fill="#151925"/>
<path d="M239.028 294.7C240.221 293.884 240.18 292.11 238.951 291.349L230.278 285.98C229.592 285.555 228.719 285.584 228.062 286.053L225.007 288.236L222.641 290.009L220.89 291.26C219.743 292.08 219.781 293.797 220.962 294.565L229.21 299.926C229.887 300.366 230.763 300.355 231.429 299.899L239.028 294.7Z" fill="#151925"/>
<path d="M279.236 334.908C280.429 334.091 280.388 332.318 279.159 331.557L270.485 326.187C269.8 325.763 268.926 325.792 268.27 326.26L265.214 328.443L262.849 330.217L261.098 331.468C259.951 332.287 259.988 334.004 261.17 334.772L269.418 340.133C270.095 340.573 270.97 340.563 271.637 340.107L279.236 334.908Z" fill="#151925"/>
<path d="M276.87 350.281C278.064 349.465 278.023 347.691 276.794 346.93L268.12 341.561C267.434 341.136 266.561 341.165 265.905 341.634L262.849 343.816L260.484 345.59L258.732 346.841C257.585 347.661 257.623 349.377 258.805 350.146L267.052 355.506C267.73 355.947 268.605 355.936 269.272 355.48L276.87 350.281Z" fill="#151925"/>
<path d="M261.497 340.821C262.69 340.004 262.65 338.23 261.42 337.469L252.747 332.1C252.061 331.676 251.188 331.705 250.532 332.173L247.476 334.356L245.111 336.13L243.359 337.381C242.212 338.2 242.25 339.917 243.432 340.685L251.679 346.046C252.356 346.486 253.232 346.476 253.898 346.02L261.497 340.821Z" fill="#151925"/>
<path d="M269.775 362.107C270.968 361.291 270.928 359.517 269.698 358.756L261.025 353.386C260.339 352.962 259.466 352.991 258.809 353.46L255.754 355.642L253.389 357.416L251.637 358.667C250.49 359.486 250.528 361.203 251.709 361.972L259.957 367.332C260.634 367.773 261.51 367.762 262.176 367.306L269.775 362.107Z" fill="#151925"/>
<path d="M254.402 353.829C255.595 353.013 255.554 351.239 254.325 350.478L245.651 345.108C244.966 344.684 244.092 344.713 243.436 345.181L240.38 347.364L238.015 349.138L236.264 350.389C235.117 351.208 235.154 352.925 236.336 353.693L244.584 359.054C245.261 359.494 246.136 359.484 246.803 359.028L254.402 353.829Z" fill="#151925"/>
<path d="M240.21 345.551C241.404 344.734 241.363 342.961 240.134 342.2L231.46 336.83C230.775 336.406 229.901 336.435 229.245 336.903L226.189 339.086L223.824 340.86L222.073 342.111C220.926 342.93 220.963 344.647 222.145 345.415L230.392 350.776C231.07 351.216 231.945 351.206 232.612 350.75L240.21 345.551Z" fill="#151925"/>
<path d="M222.472 352.647C223.665 351.83 223.625 350.056 222.395 349.295L213.722 343.926C213.036 343.502 212.163 343.53 211.506 343.999L208.451 346.182L206.086 347.956L204.334 349.207C203.187 350.026 203.225 351.743 204.407 352.511L212.654 357.872C213.331 358.312 214.207 358.302 214.873 357.846L222.472 352.647Z" fill="#151925"/>
<path d="M207.098 344.368C208.291 343.552 208.251 341.778 207.021 341.017L198.348 335.648C197.662 335.224 196.789 335.252 196.133 335.721L193.077 337.904L190.712 339.678L188.96 340.929C187.813 341.748 187.851 343.465 189.033 344.233L197.28 349.594C197.957 350.034 198.833 350.024 199.499 349.568L207.098 344.368Z" fill="#151925"/>
<path d="M191.725 334.908C192.918 334.091 192.877 332.318 191.648 331.557L182.974 326.187C182.289 325.763 181.415 325.792 180.759 326.26L177.703 328.443L175.338 330.217L173.587 331.468C172.44 332.287 172.477 334.004 173.659 334.772L181.907 340.133C182.584 340.573 183.459 340.563 184.126 340.107L191.725 334.908Z" fill="#151925"/>
<path d="M177.534 326.63C178.727 325.813 178.686 324.04 177.457 323.279L168.783 317.909C168.098 317.485 167.224 317.514 166.568 317.982L163.512 320.165L161.147 321.939L159.396 323.19C158.249 324.009 158.286 325.726 159.468 326.494L167.716 331.855C168.393 332.295 169.268 332.285 169.935 331.829L177.534 326.63Z" fill="#151925"/>
<path d="M311.165 352.647C312.358 351.83 312.318 350.056 311.089 349.295L302.415 343.926C301.729 343.502 300.856 343.53 300.2 343.999L297.144 346.182L294.779 347.956L293.027 349.207C291.88 350.026 291.918 351.743 293.1 352.511L301.347 357.872C302.024 358.312 302.9 358.302 303.567 357.846L311.165 352.647Z" fill="#151925"/>
<path d="M325.356 360.925C326.549 360.108 326.509 358.334 325.28 357.573L316.606 352.204C315.92 351.78 315.047 351.809 314.391 352.277L311.335 354.46L308.97 356.234L307.218 357.485C306.071 358.304 306.109 360.021 307.291 360.789L315.538 366.15C316.215 366.59 317.091 366.58 317.758 366.124L325.356 360.925Z" fill="#151925"/>
<path d="M340.73 370.385C341.923 369.569 341.882 367.795 340.653 367.034L331.979 361.665C331.294 361.24 330.42 361.269 329.764 361.738L326.709 363.921L324.343 365.694L322.592 366.946C321.445 367.765 321.483 369.482 322.664 370.25L330.912 375.611C331.589 376.051 332.464 376.041 333.131 375.584L340.73 370.385Z" fill="#151925"/>
<path d="M354.921 378.663C356.114 377.847 356.073 376.073 354.844 375.312L346.171 369.943C345.485 369.518 344.612 369.547 343.955 370.016L340.9 372.198L338.535 373.972L336.783 375.223C335.636 376.043 335.674 377.76 336.855 378.528L345.103 383.889C345.78 384.329 346.656 384.318 347.322 383.862L354.921 378.663Z" fill="#151925"/>
<path d="M371.477 386.941C372.67 386.125 372.63 384.351 371.4 383.59L362.727 378.221C362.041 377.796 361.168 377.825 360.512 378.294L357.456 380.476L355.091 382.25L353.339 383.501C352.192 384.321 352.23 386.038 353.412 386.806L361.659 392.167C362.336 392.607 363.212 392.596 363.878 392.14L371.477 386.941Z" fill="#151925"/>
<path d="M330.087 346.733C331.28 345.917 331.239 344.143 330.01 343.382L321.336 338.013C320.651 337.589 319.777 337.617 319.121 338.086L316.065 340.269L313.7 342.043L311.949 343.294C310.802 344.113 310.839 345.83 312.021 346.598L320.269 351.959C320.946 352.399 321.821 352.389 322.488 351.933L330.087 346.733Z" fill="#151925"/>
<path d="M344.278 355.012C345.471 354.195 345.43 352.421 344.201 351.66L335.527 346.291C334.842 345.867 333.968 345.895 333.312 346.364L330.256 348.547L327.891 350.321L326.14 351.572C324.993 352.391 325.03 354.108 326.212 354.876L334.46 360.237C335.137 360.677 336.012 360.667 336.679 360.211L344.278 355.012Z" fill="#151925"/>
<path d="M418.78 398.767C419.973 397.951 419.933 396.177 418.704 395.416L410.03 390.046C409.344 389.622 408.471 389.651 407.815 390.119L404.759 392.302L402.394 394.076L400.642 395.327C399.495 396.146 399.533 397.863 400.715 398.631L408.962 403.992C409.639 404.432 410.515 404.422 411.182 403.966L418.78 398.767Z" fill="#151925"/>
<path d="M403.407 389.306C404.6 388.49 404.559 386.716 403.33 385.955L394.656 380.586C393.971 380.162 393.097 380.19 392.441 380.659L389.386 382.842L387.02 384.616L385.269 385.867C384.122 386.686 384.16 388.403 385.341 389.171L393.589 394.532C394.266 394.972 395.141 394.962 395.808 394.506L403.407 389.306Z" fill="#151925"/>
<path d="M389.216 381.028C390.409 380.212 390.368 378.438 389.139 377.677L380.466 372.308C379.78 371.883 378.907 371.912 378.25 372.381L375.195 374.564L372.829 376.338L371.078 377.589C369.931 378.408 369.969 380.125 371.15 380.893L379.398 386.254C380.075 386.694 380.951 386.684 381.617 386.227L389.216 381.028Z" fill="#151925"/>
<path d="M373.842 372.75C375.035 371.934 374.995 370.16 373.765 369.399L365.092 364.03C364.406 363.605 363.533 363.634 362.877 364.103L359.821 366.286L357.456 368.059L355.704 369.311C354.557 370.13 354.595 371.847 355.777 372.615L364.024 377.976C364.701 378.416 365.577 378.406 366.243 377.949L373.842 372.75Z" fill="#151925"/>
<path d="M359.651 363.29C360.844 362.473 360.804 360.699 359.574 359.938L350.901 354.569C350.215 354.145 349.342 354.173 348.686 354.642L345.63 356.825L343.265 358.599L341.513 359.85C340.366 360.669 340.404 362.386 341.586 363.154L349.833 368.515C350.51 368.955 351.386 368.945 352.052 368.489L359.651 363.29Z" fill="#151925"/>
<path d="M366.747 402.315C367.94 401.499 367.899 399.725 366.67 398.964L357.997 393.595C357.311 393.17 356.438 393.199 355.781 393.668L352.726 395.85L350.36 397.624L348.609 398.875C347.462 399.694 347.5 401.411 348.681 402.18L356.929 407.54C357.606 407.981 358.482 407.97 359.148 407.514L366.747 402.315Z" fill="#151925"/>
<path d="M352.556 394.037C353.749 393.221 353.708 391.447 352.479 390.686L343.805 385.316C343.12 384.892 342.246 384.921 341.59 385.389L338.534 387.572L336.169 389.346L334.418 390.597C333.271 391.416 333.308 393.133 334.49 393.901L342.738 399.262C343.415 399.702 344.29 399.692 344.957 399.236L352.556 394.037Z" fill="#151925"/>
<path d="M337.182 385.759C338.375 384.942 338.335 383.168 337.105 382.407L328.432 377.038C327.746 376.614 326.873 376.642 326.217 377.111L323.161 379.294L320.796 381.068L319.044 382.319C317.897 383.138 317.935 384.855 319.117 385.623L327.364 390.984C328.041 391.424 328.917 391.414 329.583 390.958L337.182 385.759Z" fill="#151925"/>
<path d="M321.809 376.298C323.002 375.482 322.961 373.708 321.732 372.947L313.058 367.578C312.373 367.153 311.499 367.182 310.843 367.651L307.787 369.833L305.422 371.607L303.671 372.858C302.524 373.678 302.561 375.395 303.743 376.163L311.991 381.524C312.668 381.964 313.543 381.953 314.21 381.497L321.809 376.298Z" fill="#151925"/>
<path d="M306.435 368.02C307.628 367.203 307.588 365.43 306.358 364.669L297.685 359.299C296.999 358.875 296.126 358.904 295.47 359.372L292.414 361.555L290.049 363.329L288.297 364.58C287.15 365.399 287.188 367.116 288.37 367.884L296.617 373.245C297.294 373.685 298.17 373.675 298.836 373.219L306.435 368.02Z" fill="#151925"/>
<path d="M300.522 379.846C301.715 379.029 301.675 377.256 300.445 376.495L291.772 371.125C291.086 370.701 290.213 370.73 289.557 371.198L286.501 373.381L284.136 375.155L282.384 376.406C281.237 377.225 281.275 378.942 282.457 379.71L290.704 385.071C291.381 385.511 292.257 385.501 292.923 385.045L300.522 379.846Z" fill="#151925"/>
<path d="M314.713 388.124C315.906 387.307 315.866 385.534 314.636 384.773L305.963 379.403C305.277 378.979 304.404 379.008 303.748 379.476L300.692 381.659L298.327 383.433L296.575 384.684C295.428 385.503 295.466 387.22 296.648 387.988L304.895 393.349C305.572 393.789 306.448 393.779 307.114 393.323L314.713 388.124Z" fill="#151925"/>
<path d="M314.713 405.863C315.906 405.046 315.866 403.272 314.636 402.511L305.963 397.142C305.277 396.718 304.404 396.746 303.748 397.215L300.692 399.398L298.327 401.172L296.575 402.423C295.428 403.242 295.466 404.959 296.648 405.727L304.895 411.088C305.572 411.528 306.448 411.518 307.114 411.062L314.713 405.863Z" fill="#151925"/>
<path d="M345.46 405.863C346.653 405.046 346.613 403.272 345.384 402.511L336.71 397.142C336.024 396.718 335.151 396.746 334.495 397.215L331.439 399.398L329.074 401.172L327.322 402.423C326.175 403.242 326.213 404.959 327.395 405.727L335.642 411.088C336.319 411.528 337.195 411.518 337.862 411.062L345.46 405.863Z" fill="#151925"/>
<path d="M330.087 397.585C331.28 396.768 331.239 394.994 330.01 394.233L321.336 388.864C320.651 388.44 319.777 388.468 319.121 388.937L316.065 391.12L313.7 392.894L311.949 394.145C310.802 394.964 310.839 396.681 312.021 397.449L320.269 402.81C320.946 403.25 321.821 403.24 322.488 402.784L330.087 397.585Z" fill="#151925"/>
<path d="M300.301 397.012C301.562 396.21 301.53 394.36 300.242 393.602L230.818 352.731C230.157 352.342 229.332 352.365 228.693 352.79L219.957 358.614C218.733 359.43 218.779 361.243 220.042 361.996L251.023 380.476L288.992 402.913C289.64 403.296 290.448 403.282 291.084 402.878L300.301 397.012Z" fill="#151925"/>
<path d="M385.668 396.402C386.861 395.586 386.821 393.812 385.591 393.051L376.918 387.681C376.232 387.257 375.359 387.286 374.703 387.754L371.647 389.937L369.282 391.711L367.53 392.962C366.383 393.781 366.421 395.498 367.603 396.266L375.85 401.627C376.527 402.067 377.403 402.057 378.069 401.601L385.668 396.402Z" fill="#151925"/>
<path d="M404.501 407.105C405.717 406.274 405.647 404.458 404.371 403.723L392.865 397.085C392.186 396.693 391.341 396.734 390.704 397.189L387.612 399.398L385.247 401.172L384.382 401.863C383.338 402.699 383.392 404.303 384.489 405.067L394.757 412.21C395.439 412.684 396.343 412.687 397.029 412.218L404.501 407.105Z" fill="#151925"/>
<path d="M377.051 423.648C378.339 422.829 378.271 420.927 376.928 420.201L351.312 406.369C350.718 406.048 350.003 406.048 349.409 406.37L339.426 411.778C338.027 412.535 338.029 414.543 339.43 415.297L365.884 429.542C366.521 429.885 367.295 429.857 367.906 429.468L377.051 423.648Z" fill="#151925"/>
<path d="M428.89 391.026C429.496 390.622 429.48 389.727 428.861 389.343L418.314 382.814C417.981 382.608 417.559 382.615 417.233 382.832L411.967 386.343C411.361 386.747 411.376 387.642 411.995 388.025L422.543 394.555C422.876 394.761 423.298 394.753 423.624 394.536L428.89 391.026Z" fill="#151925"/>
<path d="M414.107 382.522C414.713 382.119 414.698 381.223 414.079 380.84L403.531 374.311C403.199 374.105 402.776 374.112 402.45 374.329L397.184 377.84C396.579 378.243 396.594 379.139 397.213 379.522L407.76 386.051C408.093 386.257 408.516 386.25 408.841 386.033L414.107 382.522Z" fill="#151925"/>
<path d="M398.734 374.244C399.34 373.84 399.325 372.945 398.706 372.562L388.158 366.032C387.825 365.826 387.403 365.833 387.077 366.051L381.811 369.561C381.205 369.965 381.22 370.86 381.839 371.244L392.387 377.773C392.72 377.979 393.142 377.972 393.468 377.755L398.734 374.244Z" fill="#151925"/>
<path d="M383.36 364.784C383.966 364.38 383.951 363.485 383.332 363.101L372.785 356.572C372.452 356.366 372.029 356.373 371.703 356.59L366.438 360.101C365.832 360.505 365.847 361.4 366.466 361.783L377.013 368.313C377.346 368.519 377.769 368.511 378.094 368.294L383.36 364.784Z" fill="#151925"/>
<path d="M383.36 364.784C383.966 364.38 383.951 363.485 383.332 363.101L372.785 356.572C372.452 356.366 372.029 356.373 371.703 356.59L366.438 360.101C365.832 360.505 365.847 361.4 366.466 361.783L377.013 368.313C377.346 368.519 377.769 368.511 378.094 368.294L383.36 364.784Z" fill="#151925"/>
<path d="M352.613 345.862C353.219 345.458 353.204 344.563 352.585 344.18L342.037 337.651C341.704 337.444 341.282 337.452 340.956 337.669L335.69 341.179C335.084 341.583 335.099 342.479 335.719 342.862L346.266 349.391C346.599 349.597 347.021 349.59 347.347 349.373L352.613 345.862Z" fill="#151925"/>
<path d="M367.987 355.323C368.593 354.919 368.578 354.024 367.959 353.641L357.411 347.111C357.078 346.905 356.656 346.912 356.33 347.129L351.064 350.64C350.458 351.044 350.473 351.939 351.092 352.322L361.64 358.852C361.973 359.058 362.395 359.051 362.721 358.834L367.987 355.323Z" fill="#151925"/>
<path d="M337.24 336.402C337.845 335.998 337.83 335.103 337.211 334.719L326.664 328.19C326.331 327.984 325.908 327.991 325.583 328.208L320.317 331.719C319.711 332.123 319.726 333.018 320.345 333.401L330.893 339.93C331.225 340.137 331.648 340.129 331.974 339.912L337.24 336.402Z" fill="#151925"/>
<path d="M321.866 328.124C322.472 327.72 322.457 326.824 321.838 326.441L311.29 319.912C310.957 319.706 310.535 319.713 310.209 319.93L304.943 323.441C304.337 323.845 304.352 324.74 304.971 325.123L315.519 331.652C315.852 331.858 316.274 331.851 316.6 331.634L321.866 328.124Z" fill="#151925"/>
<path d="M321.866 328.124C322.472 327.72 322.457 326.824 321.838 326.441L311.29 319.912C310.957 319.706 310.535 319.713 310.209 319.93L304.943 323.441C304.337 323.845 304.352 324.74 304.971 325.123L315.519 331.652C315.852 331.858 316.274 331.851 316.6 331.634L321.866 328.124Z" fill="#151925"/>
<path d="M260.372 292.646C260.978 292.242 260.963 291.347 260.344 290.964L249.796 284.434C249.463 284.228 249.041 284.235 248.715 284.452L243.449 287.963C242.843 288.367 242.858 289.262 243.477 289.645L254.025 296.175C254.358 296.381 254.78 296.374 255.106 296.157L260.372 292.646Z" fill="#151925"/>
<path d="M244.998 284.368C245.604 283.964 245.589 283.069 244.97 282.686L234.422 276.156C234.09 275.95 233.667 275.957 233.341 276.175L228.075 279.685C227.47 280.089 227.485 280.984 228.104 281.368L238.651 287.897C238.984 288.103 239.407 288.096 239.732 287.879L244.998 284.368Z" fill="#151925"/>
<path d="M229.625 274.908C230.231 274.504 230.216 273.609 229.597 273.225L219.049 266.696C218.716 266.49 218.294 266.497 217.968 266.714L212.702 270.225C212.096 270.629 212.111 271.524 212.73 271.907L223.278 278.437C223.611 278.643 224.033 278.636 224.359 278.418L229.625 274.908Z" fill="#151925"/>
<path d="M214.251 266.629C214.857 266.226 214.842 265.33 214.223 264.947L203.675 258.418C203.343 258.212 202.92 258.219 202.594 258.436L197.328 261.947C196.723 262.35 196.738 263.246 197.357 263.629L207.904 270.158C208.237 270.364 208.66 270.357 208.985 270.14L214.251 266.629Z" fill="#151925"/>
<path d="M276.928 302.107C277.534 301.703 277.519 300.808 276.9 300.424L266.352 293.895C266.019 293.689 265.597 293.696 265.271 293.913L260.005 297.424C259.399 297.828 259.414 298.723 260.033 299.106L270.581 305.636C270.914 305.842 271.336 305.834 271.662 305.617L276.928 302.107Z" fill="#151925"/>
<path d="M292.302 310.385C292.907 309.981 292.892 309.086 292.273 308.702L281.726 302.173C281.393 301.967 280.97 301.974 280.645 302.191L275.379 305.702C274.773 306.106 274.788 307.001 275.407 307.384L285.955 313.914C286.287 314.12 286.71 314.113 287.036 313.895L292.302 310.385Z" fill="#151925"/>
<path d="M306.493 319.845C307.098 319.442 307.083 318.546 306.464 318.163L295.917 311.634C295.584 311.428 295.161 311.435 294.836 311.652L289.57 315.163C288.964 315.566 288.979 316.462 289.598 316.845L300.145 323.374C300.478 323.58 300.901 323.573 301.227 323.356L306.493 319.845Z" fill="#151925"/>
<path d="M200.283 306.499C201.575 305.724 201.578 303.853 200.29 303.073L181.666 291.801C181.045 291.425 180.269 291.415 179.638 291.775L171.234 296.578C169.901 297.34 169.888 299.257 171.21 300.037L190.278 311.282C190.91 311.655 191.695 311.652 192.323 311.275L200.283 306.499Z" fill="#151925"/>
<g opacity="0.8">
<path d="M255 59L463.5 176.5V201L255 84V59Z" fill="#A8A8A8"/>
<path d="M254 191L457 305.5V330L254 216V191Z" fill="#949494"/>
<path d="M255 117L379.5 183.5L373 249L255 183.5V117Z" fill="#9C9C9C"/>
<path d="M254 94.5L462 209.5V221.5L254 105.5V94.5Z" fill="#787878"/>
<path d="M386 187.665L460 229.5V295L380 253.165L386 187.665Z" fill="#F57FA9" fill-opacity="0.8"/>
</g>
<g clip-path="url(#clip0_609_8)">
<path d="M352.56 28.0081L345.648 106.337L314.578 115.051L283.593 106.349L276.688 28.0081H352.56Z" fill="url(#paint1_radial_609_8)"/>
<path d="M301.187 53.6302H314.624V44.022H290.807L291.034 46.5997L293.369 73.0775H314.624V63.4692H302.055L301.187 53.6302V53.6302ZM303.328 77.8817H293.793L295.124 92.9682L314.58 98.4316L314.624 98.4196V88.4229L314.582 88.434L304.004 85.5447L303.328 77.8817Z" fill="#EBEBEB"/>
</g>
<g clip-path="url(#clip1_609_8)">
<path d="M199.167 128.777L192.255 207.107L161.184 215.82L130.2 207.119L123.295 128.777H199.167Z" fill="url(#paint2_radial_609_8)"/>
</g>
<g clip-path="url(#clip2_609_8)">
<path d="M410.2 240H427L385 312.934L343 240H375.13L385 256.912L394.66 240H410.2Z" fill="url(#paint3_radial_609_8)"/>
<path d="M343 240L385 312.934L427 240H410.2L385 283.76L359.59 240H343Z" fill="url(#paint4_radial_609_8)"/>
</g>
<g clip-path="url(#clip3_609_8)">
<path d="M405.2 236H422L380 308.934L338 236H370.13L380 252.912L389.66 236H405.2Z" fill="#41B883"/>
<path d="M338 236L380 308.934L422 236H405.2L380 279.76L354.59 236H338Z" fill="#41B883"/>
<path d="M354.59 236L380 279.972L405.2 236H389.66L380 252.912L370.13 236H354.59Z" fill="#35495E"/>
</g>
<g clip-path="url(#clip4_609_8)">
<path d="M154.464 209.09L121.656 200.03L114.345 118.458H194.68L187.362 200.018L154.464 209.09V209.09Z" fill="#264DE4"/>
<path d="M154.464 209.09L121.656 200.03L114.345 118.458H194.68L187.362 200.018L154.464 209.09V209.09Z" fill="#264DE4"/>
<path d="M181.096 194.824L187.35 125.128H154.513V202.155L181.096 194.824V194.824Z" fill="#2965F1"/>
<path d="M131.106 155.382L132.007 165.386H154.513V155.382H131.106ZM129.294 135.133L130.209 145.137H154.513V135.133H129.294V135.133ZM154.513 181.365L154.469 181.376L143.268 178.368L142.552 170.389H132.456L133.865 186.097L154.467 191.786L154.513 191.774V181.365Z" fill="#EBEBEB"/>
<path d="M133.252 96.2905H145.432V101.358H138.346V106.425H145.433V111.492H133.252V96.2905ZM147.869 96.2905H160.049V100.697H152.962V101.578H160.049V111.712H147.869V107.085H154.956V106.204H147.868V96.2905H147.869ZM162.486 96.2905H174.667V100.697H167.58V101.578H174.667V111.712H162.486V107.085H169.573V106.204H162.486V96.2905H162.486Z" fill="black"/>
<path d="M177.856 155.382L179.671 135.133H154.478V145.137H168.649L167.734 155.382H154.478V165.386H166.862L165.695 178.362L154.478 181.373V191.781L175.095 186.097L175.247 184.407L177.61 158.068L177.856 155.382V155.382Z" fill="white"/>
</g>
<g clip-path="url(#clip5_609_8)">
<path d="M348.081 21.29L341.169 99.6193L310.099 108.333L279.114 99.6314L272.209 21.29H348.081Z" fill="#E44D26"/>
<path d="M310.145 101.672L335.252 94.6314L341.158 27.6953H310.145V101.672Z" fill="#F16529"/>
<path d="M296.708 46.9122H310.145V37.304H286.328L286.555 39.8816L288.89 66.3594H310.145V56.7512H297.576L296.708 46.9122V46.9122ZM298.849 71.1637H289.314L290.645 86.2501L310.102 91.7136L310.145 91.7015V81.7049L310.104 81.716L299.525 78.8267L298.849 71.1637Z" fill="#EBEBEB"/>
<path d="M279.268 0H284.095V4.82413H288.511V0H293.338V14.6087H288.511V9.71685H284.096V14.6087H279.269V0H279.268ZM299.685 4.84459H295.437V0H308.765V4.84459H304.513V14.6087H299.686V4.84459H299.686H299.685ZM310.88 0H315.913L319.009 5.1331L322.102 0H327.137V14.6087H322.33V7.36782L319.009 12.562H318.926L315.603 7.36782V14.6087H310.88V0ZM329.539 0H334.368V9.78003H341.156V14.6087H329.539V0H329.539Z" fill="black"/>
<path d="M310.113 66.3594H321.809L320.706 78.8207L310.112 81.713V91.7091L329.585 86.2501L329.727 84.6268L331.96 59.3313L332.191 56.7512H310.113V66.3594ZM310.113 46.8887V46.9122H333.056L333.246 44.7527L333.679 39.8816L333.906 37.304H310.113V46.889V46.8887Z" fill="white"/>
</g>
<g clip-path="url(#clip6_609_8)">
<path d="M401.957 88.4529H471.376V157.872H401.957V88.4529Z" fill="url(#paint5_radial_609_8)"/>
</g>
<g clip-path="url(#clip7_609_8)">
<path d="M399.718 87.3335H464.658V152.274H399.718V87.3335Z" fill="#F7DF1E"/>
<path d="M416.793 141.602L421.762 138.595C422.721 140.295 423.593 141.733 425.685 141.733C427.691 141.733 428.955 140.948 428.955 137.897V117.147H435.058V137.984C435.058 144.304 431.353 147.181 425.947 147.181C421.065 147.181 418.231 144.653 416.793 141.602L416.793 141.602ZM438.373 140.948L443.342 138.071C444.65 140.207 446.35 141.777 449.357 141.777C451.886 141.777 453.499 140.512 453.499 138.769C453.499 136.676 451.842 135.935 449.052 134.715L447.527 134.06C443.124 132.187 440.203 129.833 440.203 124.863C440.203 120.286 443.691 116.798 449.14 116.798C453.019 116.798 455.809 118.15 457.814 121.681L453.063 124.732C452.016 122.858 450.883 122.117 449.14 122.117C447.352 122.117 446.219 123.25 446.219 124.732C446.219 126.563 447.352 127.305 449.968 128.438L451.493 129.092C456.681 131.315 459.601 133.582 459.601 138.682C459.601 144.175 455.286 147.182 449.488 147.182C443.821 147.182 440.16 144.48 438.372 140.948" fill="black"/>
</g>
<path d="M340.092 207.782C336.515 208.003 333.455 209.054 330.924 210.494C329.86 208.628 328.807 206.972 328.568 205.727C328.298 204.275 328.022 203.394 328.148 201.633C328.274 199.872 329.145 197.325 329.115 197.136C329.086 196.947 328.829 196.065 326.767 196.163C324.705 196.261 322.949 196.78 322.775 197.342C322.6 197.905 322.277 199.182 322.088 200.489C321.84 202.41 318.459 209.407 316.506 213.083C315.734 211.735 315.066 210.553 314.88 209.591C314.61 208.138 314.334 207.258 314.46 205.497C314.586 203.735 315.457 201.189 315.427 201C315.397 200.811 315.141 199.929 313.079 200.027C311.017 200.125 309.261 200.644 309.087 201.206C308.912 201.769 308.76 203.074 308.4 204.353C308.04 205.632 303.68 217.242 302.535 220.242C302.072 221.457 301.582 222.66 301.067 223.853C301.067 223.853 301.051 223.911 301 224.009C300.838 224.383 300.671 224.754 300.5 225.124L300.501 225.143C300.249 225.672 299.976 226.164 299.826 226.172C299.714 226.179 299.43 224.822 299.681 222.94C300.207 218.963 301.64 212.743 301.61 212.535C301.603 212.421 301.88 211.338 300.35 210.871C298.858 210.403 298.385 211.345 298.254 211.352C298.123 211.36 298.047 211.688 298.047 211.688C298.047 211.688 299.288 204.716 294.548 204.985C291.589 205.152 287.691 208.671 285.835 211.751C283.607 213.151 281.382 214.554 279.158 215.961C278.089 216.651 276.981 217.343 275.947 217.992C275.868 217.921 275.787 217.83 275.708 217.758C269.624 211.868 258.773 208.078 258.75 199.71C258.746 196.66 259.324 188.62 277.939 177.842C293.265 169.062 305.94 170.536 308.388 175.26C311.889 182.001 302.782 195.405 286.59 198.19C280.41 199.246 277.013 196.998 276.137 196.133C275.222 195.231 275.087 195.181 274.779 195.39C274.271 195.705 274.657 196.541 274.872 197.024C275.432 198.288 277.566 200.456 281.02 201.385C284.073 202.203 291.391 202.342 300.019 198.383C309.671 193.947 316.779 182.735 314.001 173.836C311.216 164.804 296.058 162.631 282.167 168.547C273.91 172.065 265.039 177.372 258.817 183.978C251.425 191.831 250.553 198.344 251.212 201.014C253.572 210.489 266.944 215.985 272.413 220.309C272.16 220.475 271.923 220.623 271.724 220.748C269.194 222.207 259.564 228.033 257.407 233.742C254.954 240.21 258.47 244.549 260.659 245.035C267.453 246.538 274.136 242.766 277.51 236.969C280.884 231.173 280.023 223.938 278.13 220.709C278.109 220.672 278.089 220.635 278.049 220.599C278.701 220.162 279.37 219.705 280.022 219.268C281.22 218.454 282.434 217.667 283.666 216.907C283.129 218.71 282.78 220.846 282.727 223.9C282.649 227.489 284.353 232.044 286.349 233.761C287.237 234.512 288.231 234.474 288.868 234.438C291.079 234.313 291.966 232.394 292.947 230.127C294.142 227.353 295.182 224.148 295.182 224.148C295.182 224.148 294.145 232.71 298.266 232.476C299.765 232.391 301.17 230.329 301.788 229.284L301.789 229.302C301.789 229.302 301.823 229.243 301.891 229.106C302.026 228.851 302.111 228.693 302.111 228.693L302.109 228.655C302.648 227.557 303.861 225.067 305.638 220.943C307.93 215.628 310.056 209.026 310.056 209.026C310.056 209.026 310.37 210.59 311.286 213.169C311.824 214.683 312.855 216.321 313.698 217.913C313.147 218.803 312.799 219.299 312.799 219.299L312.819 219.317C312.368 219.99 311.883 220.723 311.341 221.441C309.439 224.027 307.165 226.997 306.874 227.832C306.535 228.824 306.669 229.522 307.451 230.05C308.017 230.437 308.994 230.439 309.984 230.326C311.813 230.088 313.079 229.559 313.7 229.238C314.672 228.821 315.803 228.204 316.843 227.325C318.762 225.71 319.858 223.494 319.585 220.669C319.441 219.113 318.847 217.584 318.146 216.155C318.318 215.879 318.472 215.603 318.644 215.326C321.544 210.453 323.706 205.164 323.706 205.164C323.706 205.164 324.021 206.728 324.937 209.308C325.387 210.617 326.237 212.017 326.991 213.385C324.151 216.006 322.477 218.96 321.926 220.86C320.943 224.386 321.948 225.892 323.711 226.154C324.507 226.281 325.61 225.837 326.414 225.429C327.443 225.028 328.647 224.369 329.777 223.427C331.697 221.813 333.508 219.613 333.235 216.788C333.105 215.499 332.696 214.244 332.158 213.035C334.626 211.829 337.853 211.055 342.039 211.313C351.017 211.872 353.097 217.417 352.894 219.812C352.692 222.206 350.892 223.605 350.296 224.039C349.7 224.473 349.502 224.618 349.574 224.899C349.673 225.313 349.971 225.277 350.492 225.172C351.215 224.997 355.067 222.987 354.987 218.606C354.952 213.003 349.361 207.2 340.092 207.782V207.782ZM272.637 235.205C269.862 238.641 265.811 240.11 263.972 239.166C261.998 238.152 262.474 233.283 265.912 229.619C268.003 227.384 270.739 225.265 272.564 223.961C272.979 223.67 273.595 223.254 274.336 222.735C274.463 222.652 274.536 222.61 274.536 222.61L274.969 222.299C276.579 227.165 275.552 231.589 272.637 235.205V235.205ZM293.338 219.124C292.452 221.729 290.667 228.369 289.335 228.082C288.194 227.842 287.221 222.94 288.537 217.966C289.203 215.468 290.742 212.445 291.671 211.249C293.178 209.333 294.923 208.624 295.396 209.341C295.995 210.279 293.884 217.491 293.338 219.124V219.124ZM311.604 226.745C311.186 226.997 310.783 227.173 310.589 227.069C310.454 227 310.755 226.678 310.755 226.678C310.755 226.678 312.846 224.12 313.664 222.967C314.134 222.293 314.69 221.499 315.278 220.607L315.292 220.854C315.457 223.762 312.795 225.877 311.604 226.745L311.604 226.745ZM325.137 222.794C324.805 222.584 324.819 221.821 325.752 219.385C326.111 218.43 326.997 216.817 328.579 215.221C328.801 215.819 328.966 216.4 328.978 216.953C329.167 220.622 326.66 222.136 325.137 222.794Z" fill="url(#paint6_radial_609_8)"/>
<path d="M337.852 206.662C334.276 206.884 331.215 207.934 328.685 209.374C327.62 207.508 326.568 205.852 326.329 204.608C326.058 203.155 325.783 202.274 325.909 200.513C326.035 198.752 326.905 196.205 326.876 196.016C326.846 195.827 326.589 194.946 324.528 195.044C322.466 195.141 320.71 195.66 320.535 196.223C320.36 196.785 320.038 198.062 319.849 199.369C319.601 201.29 316.22 208.287 314.267 211.963C313.495 210.616 312.827 209.433 312.641 208.471C312.371 207.019 312.095 206.138 312.221 204.377C312.347 202.616 313.217 200.069 313.188 199.88C313.158 199.691 312.901 198.809 310.84 198.907C308.778 199.005 307.022 199.524 306.847 200.087C306.673 200.65 306.521 201.954 306.161 203.233C305.801 204.512 301.441 216.122 300.296 219.123C299.833 220.337 299.343 221.541 298.827 222.733C298.827 222.733 298.812 222.791 298.761 222.889C298.599 223.263 298.432 223.635 298.261 224.004L298.262 224.023C298.01 224.553 297.737 225.044 297.587 225.053C297.474 225.059 297.191 223.703 297.441 221.82C297.968 217.844 299.401 211.624 299.371 211.416C299.364 211.301 299.641 210.218 298.111 209.752C296.618 209.283 296.146 210.225 296.015 210.233C295.884 210.24 295.808 210.569 295.808 210.569C295.808 210.569 297.048 203.597 292.309 203.865C289.349 204.033 285.451 207.552 283.596 210.631C281.368 212.031 279.142 213.434 276.919 214.841C275.85 215.531 274.742 216.223 273.708 216.873C273.628 216.801 273.548 216.71 273.469 216.638C267.384 210.749 256.533 206.959 256.51 198.591C256.507 195.54 257.085 187.5 275.7 176.723C291.026 167.942 303.701 169.417 306.149 174.14C309.65 180.882 300.543 194.286 284.35 197.071C278.171 198.127 274.774 195.878 273.898 195.013C272.982 194.111 272.848 194.062 272.54 194.27C272.032 194.585 272.417 195.421 272.633 195.904C273.193 197.169 275.326 199.336 278.781 200.265C281.834 201.084 289.152 201.222 297.78 197.264C307.432 192.828 314.54 181.615 311.762 172.717C308.976 163.685 293.819 161.512 279.928 167.427C271.67 170.945 262.8 176.252 256.578 182.858C249.186 190.712 248.314 197.224 248.973 199.895C251.333 209.37 264.705 214.866 270.174 219.189C269.92 219.356 269.684 219.503 269.485 219.629C266.955 221.087 257.325 226.914 255.168 232.622C252.715 239.09 256.231 243.429 258.419 243.915C265.214 245.418 271.897 241.646 275.271 235.849C278.645 230.053 277.784 222.819 275.891 219.59C275.87 219.553 275.85 219.516 275.81 219.48C276.462 219.043 277.131 218.585 277.783 218.148C278.98 217.334 280.195 216.547 281.427 215.787C280.889 217.591 280.541 219.727 280.488 222.78C280.409 226.369 282.114 230.924 284.11 232.641C284.998 233.392 285.992 233.355 286.629 233.319C288.839 233.194 289.727 231.275 290.707 229.008C291.903 226.233 292.943 223.028 292.943 223.028C292.943 223.028 291.906 231.59 296.027 231.357C297.526 231.272 298.931 229.209 299.549 228.164L299.55 228.183C299.55 228.183 299.584 228.124 299.651 227.986C299.787 227.731 299.872 227.573 299.872 227.573L299.87 227.536C300.409 226.437 301.621 223.947 303.399 219.824C305.691 214.508 307.817 207.906 307.817 207.906C307.817 207.906 308.131 209.47 309.047 212.05C309.584 213.563 310.616 215.202 311.458 216.794C310.907 217.683 310.559 218.179 310.559 218.179L310.579 218.197C310.129 218.871 309.644 219.603 309.102 220.321C307.2 222.907 304.925 225.877 304.634 226.713C304.295 227.704 304.429 228.402 305.211 228.93C305.778 229.317 306.755 229.319 307.745 229.206C309.573 228.969 310.84 228.44 311.46 228.119C312.433 227.701 313.563 227.084 314.603 226.205C316.523 224.59 317.619 222.374 317.346 219.549C317.202 217.994 316.608 216.464 315.906 215.035C316.079 214.759 316.232 214.483 316.405 214.207C319.305 209.333 321.467 204.044 321.467 204.044C321.467 204.044 321.781 205.608 322.698 208.188C323.148 209.497 323.998 210.898 324.751 212.266C321.912 214.886 320.237 217.841 319.687 219.74C318.703 223.266 319.709 224.772 321.472 225.035C322.268 225.161 323.371 224.717 324.175 224.31C325.204 223.908 326.407 223.249 327.538 222.308C329.458 220.693 331.268 218.493 330.996 215.668C330.866 214.379 330.457 213.125 329.919 211.916C332.387 210.709 335.614 209.935 339.8 210.193C348.777 210.753 350.858 216.297 350.655 218.692C350.452 221.087 348.652 222.485 348.057 222.919C347.461 223.353 347.263 223.498 347.335 223.78C347.434 224.194 347.732 224.158 348.253 224.052C348.976 223.878 352.827 221.867 352.748 217.487C352.713 211.883 347.122 206.08 337.852 206.662ZM270.398 234.085C267.623 237.522 263.572 238.99 261.733 238.046C259.759 237.033 260.235 232.163 263.673 228.499C265.764 226.264 268.5 224.145 270.325 222.841C270.74 222.55 271.356 222.135 272.097 221.616C272.224 221.532 272.297 221.49 272.297 221.49L272.73 221.179C274.34 226.045 273.313 230.47 270.398 234.085ZM291.099 218.004C290.213 220.609 288.428 227.25 287.096 226.963C285.955 226.722 284.982 221.82 286.297 216.846C286.964 214.349 288.503 211.325 289.431 210.129C290.939 208.213 292.684 207.504 293.157 208.221C293.755 209.16 291.645 216.371 291.099 218.004ZM309.365 225.625C308.947 225.878 308.544 226.053 308.35 225.95C308.214 225.881 308.516 225.559 308.516 225.559C308.516 225.559 310.607 223 311.425 221.848C311.895 221.173 312.45 220.379 313.039 219.488L313.053 219.735C313.218 222.643 310.556 224.757 309.365 225.625ZM322.898 221.675C322.566 221.465 322.579 220.701 323.513 218.265C323.872 217.311 324.758 215.697 326.34 214.102C326.562 214.699 326.727 215.281 326.739 215.833C326.928 219.502 324.42 221.017 322.898 221.675Z" fill="#CD6799"/>
<path d="M463.718 279.79C463.718 286.01 468.76 291.051 474.979 291.051H539.79C546.01 291.051 551.051 286.01 551.051 279.79V214.979C551.051 208.759 546.01 203.718 539.79 203.718H474.979C468.759 203.718 463.718 208.76 463.718 214.979V279.79V279.79Z" fill="url(#paint7_radial_609_8)"/>
<path d="M457 273.072C457 279.292 462.042 284.333 468.261 284.333H533.072C539.292 284.333 544.333 279.292 544.333 273.072V208.261C544.333 202.041 539.292 197 533.072 197H468.261C462.041 197 457 202.042 457 208.261V273.072V273.072Z" fill="#563D7C"/>
<path d="M493.215 235.631V223.263H504.102C505.139 223.263 506.138 223.349 507.101 223.522C508.064 223.695 508.916 224.003 509.656 224.448C510.397 224.892 510.989 225.509 511.434 226.299C511.878 227.089 512.1 228.102 512.1 229.335C512.1 231.557 511.434 233.162 510.1 234.149C508.768 235.137 507.064 235.631 504.99 235.631H493.215ZM481.588 214.228V267.105H507.212C509.582 267.105 511.89 266.809 514.137 266.217C516.383 265.624 518.383 264.711 520.136 263.477C521.888 262.242 523.283 260.65 524.32 258.7C525.357 256.75 525.875 254.441 525.875 251.775C525.875 248.467 525.073 245.641 523.468 243.296C521.863 240.95 519.432 239.309 516.173 238.371C518.543 237.235 520.333 235.779 521.543 234.001C522.752 232.224 523.357 230.002 523.357 227.336C523.357 224.867 522.95 222.794 522.135 221.115C521.32 219.437 520.172 218.091 518.691 217.079C517.21 216.067 515.433 215.339 513.359 214.894C511.286 214.45 508.99 214.228 506.472 214.228H481.588ZM493.215 258.07V243.555H505.879C508.397 243.555 510.421 244.135 511.952 245.295C513.483 246.455 514.248 248.393 514.248 251.109C514.248 252.491 514.013 253.627 513.544 254.515C513.075 255.404 512.446 256.108 511.656 256.626C510.866 257.145 509.952 257.515 508.916 257.737C507.879 257.959 506.793 258.07 505.657 258.07H493.215Z" fill="white"/>
<defs>
<radialGradient id="paint0_radial_609_8" cx="0" cy="0" r="1" gradientUnits="userSpaceOnUse" gradientTransform="translate(245.005 391.145) rotate(85.7815) scale(132.093 221.773)">
<stop stop-color="#0FC8F7"/>
<stop offset="0.401042" stop-color="#0FC8F7"/>
<stop offset="1" stop-color="#0FC8F7" stop-opacity="0.2"/>
</radialGradient>
<radialGradient id="paint1_radial_609_8" cx="0" cy="0" r="1" gradientUnits="userSpaceOnUse" gradientTransform="translate(314.624 71.5293) rotate(90) scale(43.5213 37.936)">
<stop stop-color="#0FC8F7"/>
<stop offset="1" stop-color="#0FC8F7" stop-opacity="0.4"/>
</radialGradient>
<radialGradient id="paint2_radial_609_8" cx="0" cy="0" r="1" gradientUnits="userSpaceOnUse" gradientTransform="translate(161.231 172.299) rotate(90) scale(43.5213 37.936)">
<stop stop-color="#0FC8F7"/>
<stop offset="1" stop-color="#0FC8F7" stop-opacity="0.4"/>
</radialGradient>
<radialGradient id="paint3_radial_609_8" cx="0" cy="0" r="1" gradientUnits="userSpaceOnUse" gradientTransform="translate(385 276.467) rotate(90) scale(36.467 42)">
<stop stop-color="#0FC8F7"/>
<stop offset="1" stop-color="#0FC8F7" stop-opacity="0.4"/>
</radialGradient>
<radialGradient id="paint4_radial_609_8" cx="0" cy="0" r="1" gradientUnits="userSpaceOnUse" gradientTransform="translate(385 276.467) rotate(90) scale(36.467 42)">
<stop stop-color="#0FC8F7"/>
<stop offset="1" stop-color="#0FC8F7" stop-opacity="0"/>
</radialGradient>
<radialGradient id="paint5_radial_609_8" cx="0" cy="0" r="1" gradientUnits="userSpaceOnUse" gradientTransform="translate(436.667 123.162) rotate(90) scale(34.7094)">
<stop offset="0.00520833" stop-color="#0FC8F7"/>
<stop offset="1" stop-color="#0FC8F7" stop-opacity="0.4"/>
</radialGradient>
<radialGradient id="paint6_radial_609_8" cx="0" cy="0" r="1" gradientUnits="userSpaceOnUse" gradientTransform="translate(302.729 204.038) rotate(86.7586) scale(39.0766 51.3621)">
<stop stop-color="#0FC8F7"/>
<stop offset="1" stop-color="#0FC8F7" stop-opacity="0.8"/>
</radialGradient>
<radialGradient id="paint7_radial_609_8" cx="0" cy="0" r="1" gradientUnits="userSpaceOnUse" gradientTransform="translate(507.385 247.385) rotate(90) scale(43.6667)">
<stop stop-color="#0FC8F7"/>
<stop offset="0.0001" stop-color="#0FC8F7"/>
<stop offset="1" stop-color="#0FC8F7" stop-opacity="0.4"/>
</radialGradient>
<clipPath id="clip0_609_8">
<rect width="76.1367" height="108.607" fill="white" transform="translate(276.556 6.71802)"/>
</clipPath>
<clipPath id="clip1_609_8">
<rect width="76.1367" height="108.607" fill="white" transform="translate(123.162 107.487)"/>
</clipPath>
<clipPath id="clip2_609_8">
<rect width="84" height="73" fill="white" transform="translate(343 240)"/>
</clipPath>
<clipPath id="clip3_609_8">
<rect width="84" height="73" fill="white" transform="translate(338 236)"/>
</clipPath>
<clipPath id="clip4_609_8">
<rect width="80.6154" height="113.085" fill="white" transform="translate(114.205 96.2905)"/>
</clipPath>
<clipPath id="clip5_609_8">
<rect width="76.1367" height="108.607" fill="white" transform="translate(272.077)"/>
</clipPath>
<clipPath id="clip6_609_8">
<rect width="69.4188" height="69.4188" fill="white" transform="translate(401.957 88.4529)"/>
</clipPath>
<clipPath id="clip7_609_8">
<rect width="64.9402" height="64.9402" fill="white" transform="translate(399.718 87.3335)"/>
</clipPath>
</defs>
</svg>
