<svg width="112" height="102" viewBox="0 0 112 102" fill="none" xmlns="http://www.w3.org/2000/svg">
<mask id="mask0_1410_20" style="mask-type:luminance" maskUnits="userSpaceOnUse" x="21" y="0" width="70" height="69">
<path d="M21.6431 0H90.503V68.8599H21.6431V0Z" fill="white"/>
</mask>
<g mask="url(#mask0_1410_20)">
<path fill-rule="evenodd" clip-rule="evenodd" d="M56.073 0C37.0505 0 21.6431 15.4074 21.6431 34.4299C21.6431 49.6652 31.4986 62.5334 45.1845 67.0954C46.906 67.3966 47.5516 66.3637 47.5516 65.4599C47.5516 64.6422 47.5086 61.9309 47.5086 59.0474C38.858 60.6397 36.6201 56.9385 35.9315 55.0018C35.5442 54.012 33.8657 50.9563 32.4024 50.1386C31.1974 49.493 29.4759 47.9007 32.3594 47.8576C35.0707 47.8146 37.0074 50.3538 37.653 51.3867C40.7517 56.5942 45.701 55.131 47.6807 54.2272C47.982 51.9892 48.8858 50.4829 49.8756 49.6222C42.215 48.7614 34.21 45.7918 34.21 32.6224C34.21 28.8781 35.5442 25.7794 37.7391 23.3693C37.3948 22.5086 36.1897 18.9795 38.0834 14.2454C38.0834 14.2454 40.9669 13.3416 47.5516 17.7745C50.306 16.9998 53.2325 16.6124 56.1591 16.6124C59.0856 16.6124 62.0122 16.9998 64.7666 17.7745C71.3513 13.2986 74.2348 14.2454 74.2348 14.2454C76.1285 18.9795 74.9234 22.5086 74.5791 23.3693C76.774 25.7794 78.1082 28.8351 78.1082 32.6224C78.1082 45.8349 70.0602 48.7614 62.3995 49.6222C63.6476 50.6981 64.7235 52.7639 64.7235 55.9917C64.7235 60.5967 64.6805 64.2979 64.6805 65.4599C64.6805 66.3637 65.3261 67.4397 67.0476 67.0954C73.8824 64.7878 79.8216 60.395 84.0292 54.5352C88.2367 48.6755 90.5009 41.6438 90.503 34.4299C90.503 15.4074 75.0956 0 56.073 0Z" fill="white"/>
</g>
<path d="M21.5244 84.2071H12.1335C12.0171 84.2073 11.9054 84.2535 11.8231 84.3358C11.7408 84.418 11.6946 84.5296 11.6945 84.6459V89.2322C11.6945 89.4743 11.8912 89.6712 12.1333 89.6712H15.7969V95.3695C15.7969 95.3695 14.9743 95.6496 12.7001 95.6496C10.017 95.6496 6.26871 94.6702 6.26871 86.4373C6.26871 78.2026 10.1718 77.1192 13.8359 77.1192C17.0076 77.1192 18.3741 77.6769 19.2434 77.9457C19.5166 78.0294 19.7694 77.7577 19.7694 77.5155L20.8169 73.084C20.8169 72.9708 20.7785 72.8344 20.6492 72.7418C20.2961 72.4902 18.142 71.2861 12.6999 71.2861C6.43096 71.2861 0 73.9504 0 86.7584C0 99.5667 7.36263 101.475 13.5672 101.475C18.7043 101.475 21.8205 99.2824 21.8205 99.2824C21.9492 99.2116 21.9629 99.0324 21.9629 98.95V84.6459C21.9629 84.4041 21.7667 84.2071 21.5246 84.2071H21.5244ZM69.8962 72.8893C69.8962 72.6453 69.7025 72.4484 69.4602 72.4484H64.1725C64.1147 72.4486 64.0576 72.4602 64.0043 72.4824C63.9511 72.5047 63.9027 72.5373 63.8621 72.5782C63.8214 72.6192 63.7892 72.6677 63.7673 72.7211C63.7454 72.7744 63.7343 72.8316 63.7345 72.8893L63.7358 83.0968H55.4939V72.8895C55.4939 72.6455 55.2993 72.4486 55.0575 72.4486H49.7697C49.6533 72.4492 49.5419 72.496 49.4599 72.5787C49.378 72.6614 49.3323 72.7732 49.3329 72.8895V100.528C49.3329 100.772 49.5292 100.971 49.7697 100.971H55.0573C55.2991 100.971 55.4934 100.772 55.4934 100.528V88.7061H63.7356L63.7212 100.528C63.7212 100.772 63.9175 100.97 64.1591 100.97H69.4595C69.7016 100.97 69.8953 100.772 69.8957 100.528V72.8895L69.8962 72.8893ZM31.4853 76.5846C31.4853 74.6828 29.9587 73.1457 28.0755 73.1457C26.194 73.1457 24.6663 74.6826 24.6663 76.5846C24.6663 78.4843 26.194 80.0255 28.0755 80.0255C29.9587 80.0255 31.4853 78.4843 31.4853 76.5846V76.5846ZM31.0657 94.7122V81.9542C31.066 81.8378 31.0202 81.7262 30.9381 81.6436C30.8561 81.5611 30.7446 81.5144 30.6282 81.5139H25.3572C25.1154 81.5139 24.8993 81.7631 24.8993 82.0053V100.284C24.8993 100.821 25.2342 100.981 25.668 100.981H30.4169C30.9381 100.981 31.0657 100.725 31.0657 100.275V94.7122V94.7122ZM90.1054 81.5141H84.8583C84.6175 81.5141 84.4217 81.7121 84.4217 81.9559V95.5082C84.4217 95.5082 83.0887 96.4824 81.1966 96.4824C79.3047 96.4824 78.8026 95.6248 78.8026 93.7744V81.9561C78.8026 81.7121 78.607 81.5139 78.3662 81.5139H73.0408C72.8004 81.5139 72.6035 81.7121 72.6035 81.9561V94.6693C72.6035 100.166 75.6705 101.51 79.8894 101.51C83.3504 101.51 86.1408 99.6005 86.1408 99.6005C86.1408 99.6005 86.2739 100.607 86.3338 100.726C86.394 100.846 86.5506 100.966 86.7199 100.966L90.1078 100.951C90.3482 100.951 90.5451 100.752 90.5451 100.51L90.5434 81.9559C90.5438 81.8393 90.498 81.7274 90.4159 81.6445C90.3338 81.5617 90.2221 81.5148 90.1054 81.5141V81.5141ZM102.195 96.4929C100.375 96.4376 99.1406 95.6126 99.1406 95.6126V86.8597C99.1406 86.8597 100.359 86.114 101.853 85.9806C103.742 85.8116 105.563 86.3817 105.563 90.8844C105.563 95.6324 104.741 96.5694 102.195 96.4927V96.4929ZM104.265 80.9205C101.285 80.9205 99.2575 82.2487 99.2575 82.2487V72.8893C99.2579 72.8317 99.2469 72.7746 99.2252 72.7213C99.2035 72.6679 99.1715 72.6194 99.1309 72.5784C99.0904 72.5375 99.0422 72.5049 98.9891 72.4826C98.936 72.4603 98.879 72.4486 98.8213 72.4484H93.5185C93.4608 72.4486 93.4038 72.4602 93.3506 72.4825C93.2974 72.5048 93.2491 72.5374 93.2085 72.5783C93.1679 72.6193 93.1358 72.6678 93.114 72.7212C93.0922 72.7745 93.0812 72.8317 93.0815 72.8893V100.528C93.0815 100.772 93.2773 100.97 93.5192 100.97H97.1983C97.3641 100.97 97.4895 100.885 97.5821 100.736C97.6735 100.587 97.8055 99.4613 97.8055 99.4613C97.8055 99.4613 99.9737 101.514 104.078 101.514C108.897 101.514 111.661 99.0722 111.661 90.5528C111.661 82.0335 107.247 80.9202 104.265 80.9202V80.9205ZM46.2845 81.4662H42.3181L42.312 76.2319C42.312 76.0339 42.21 75.9348 41.9805 75.9348H36.5754C36.3652 75.9348 36.2525 76.0272 36.2525 76.2289V81.6381C36.2525 81.6381 33.5438 82.2912 33.3606 82.3439C33.2693 82.3704 33.189 82.4258 33.1319 82.5017C33.0748 82.5777 33.0439 82.6702 33.044 82.7652V86.1643C33.044 86.4087 33.2394 86.6059 33.4812 86.6059H36.2525V94.783C36.2525 100.857 40.5174 101.453 43.3955 101.453C44.7105 101.453 46.2836 101.031 46.5434 100.936C46.7004 100.878 46.7915 100.716 46.7915 100.539L46.7959 96.8001C46.7959 96.5563 46.5898 96.3589 46.3575 96.3589C46.1264 96.3589 45.5354 96.4528 44.9265 96.4528C42.9783 96.4528 42.3181 95.5479 42.3181 94.3767L42.3179 86.6061H46.2845C46.3423 86.6059 46.3995 86.5942 46.4527 86.5719C46.506 86.5496 46.5544 86.5169 46.595 86.4759C46.6357 86.4348 46.6678 86.3862 46.6896 86.3327C46.7114 86.2793 46.7224 86.222 46.722 86.1643V81.9069C46.722 81.6629 46.5263 81.4664 46.2845 81.4664V81.4662Z" fill="white"/>
</svg>
