<svg width="117" height="117" viewBox="0 0 117 117" fill="none" xmlns="http://www.w3.org/2000/svg">
<rect x="58.45" y="0.707107" width="81.6618" height="81.6618" rx="14.5" transform="rotate(45 58.45 0.707107)" fill="#0E0E1A" stroke="#8100E6"/>
<rect x="5" y="59.0833" width="68" height="68" rx="10" transform="rotate(-45 5 59.0833)" fill="#8100E6"/>
<path d="M37.2866 78.5C34.6431 78.5 32.5 76.3572 32.5 73.7134V73.7132V43.2866C32.5 40.6431 34.6428 38.5 37.2868 38.5H67.7134C70.3569 38.5 72.5 40.6428 72.5 43.2868V73.7134C72.5 76.3569 70.3572 78.5 67.7132 78.5H37.2866Z" fill="#8100E6" stroke="white"/>
<path d="M48.2509 56.7143V51.1009H53.1672C53.6355 51.1009 54.0869 51.1401 54.5217 51.2186C54.9564 51.2969 55.3411 51.4369 55.6756 51.6387C56.0099 51.8404 56.2775 52.1205 56.4783 52.479C56.6788 52.8376 56.7793 53.297 56.7793 53.857C56.7793 54.8655 56.4783 55.5939 55.8762 56.042C55.2743 56.4902 54.505 56.7143 53.5685 56.7143H48.2509ZM43 47V71H54.5719C55.6422 71 56.6845 70.8656 57.699 70.5966C58.7135 70.3277 59.6165 69.9132 60.4081 69.353C61.1995 68.7928 61.8294 68.07 62.2976 67.1849C62.766 66.2997 63 65.2521 63 64.042C63 62.5405 62.6376 61.2577 61.9131 60.1933C61.1884 59.1288 60.0902 58.3837 58.6186 57.9579C59.6889 57.4426 60.4973 56.7815 61.0436 55.9748C61.5897 55.1681 61.8629 54.1597 61.8629 52.9495C61.8629 51.8291 61.6789 50.888 61.311 50.126C60.9431 49.3642 60.4247 48.7535 59.7558 48.2941C59.087 47.8347 58.2843 47.5042 57.3478 47.3026C56.4114 47.1008 55.3746 47 54.2374 47H43ZM48.2509 66.8991V60.3109H53.9698C55.107 60.3109 56.0212 60.5741 56.7124 61.1009C57.4035 61.6275 57.7493 62.5069 57.7493 63.7395C57.7493 64.367 57.6433 64.8823 57.4314 65.2857C57.2196 65.689 56.9354 66.0085 56.5785 66.2437C56.2219 66.479 55.8093 66.647 55.3411 66.748C54.8728 66.8486 54.3824 66.8991 53.8695 66.8991H48.2509Z" fill="white"/>
</svg>
