<svg width="117" height="117" viewBox="0 0 117 117" fill="none" xmlns="http://www.w3.org/2000/svg">
<rect x="58.4497" y="0.707107" width="81.6618" height="81.6618" rx="14.5" transform="rotate(45 58.4497 0.707107)" fill="#0E0E1A" stroke="#0077E6"/>
<rect x="5" y="58.0833" width="68" height="68" rx="10" transform="rotate(-45 5 58.0833)" fill="#0077E6"/>
<g clip-path="url(#clip0_1027_3)">
<path d="M53.0867 82.8712L38.3476 78.7852L35.063 41.9974H71.1545L67.8665 78.7796L53.0867 82.8712Z" fill="#0077E6"/>
<path d="M53.0867 82.3524L38.8148 78.3959L35.6096 42.4974H70.6078L67.3993 78.3901L53.0867 82.3524Z" fill="#0077E6" stroke="white"/>
<path d="M65.0515 76.4374L67.8611 45.0053H53.1086V79.7437L65.0515 76.4374Z" fill="#2965F1"/>
<path d="M42.5928 58.6494L42.9977 63.1613H53.1087V58.6494H42.5928ZM41.7791 49.5173L42.1898 54.0291H53.1087V49.5173H41.7791ZM53.1087 70.3672L53.0889 70.3725L48.057 69.0157L47.7353 65.4173H43.1996L43.8326 72.5016L53.0879 75.0671L53.1087 75.0615V70.3672Z" fill="#D9D9D9"/>
<path d="M43.5569 32H49.0291V34.2853H45.8454V36.5705H49.0294V38.8556H43.5569V32ZM50.1237 32H55.5961V33.9872H52.4122V34.3846H55.5961V38.9551H50.1238V36.8683H53.3077V36.4709H50.1236V32H50.1237ZM56.6906 32H62.163V33.9872H58.9791V34.3846H62.163V38.9551H56.6906V36.8683H59.8745V36.4709H56.6908V32H56.6906Z" fill="white"/>
<path d="M63.5958 58.6494L64.4114 49.5173H53.0932V54.0291H59.4598L59.0487 58.6494H53.0932V63.1613H58.6569L58.1323 69.0128L53.093 70.371V75.065L62.3558 72.5016L62.4237 71.7393L63.4856 59.8609L63.5958 58.6494Z" fill="white"/>
</g>
<defs>
<clipPath id="clip0_1027_3">
<rect width="36.2174" height="51" fill="white" transform="translate(35 32)"/>
</clipPath>
</defs>
</svg>
