<svg width="117" height="117" viewBox="0 0 117 117" fill="none" xmlns="http://www.w3.org/2000/svg">
<rect x="58.4502" y="0.707107" width="81.6618" height="81.6618" rx="14.5" transform="rotate(45 58.4502 0.707107)" fill="#0E0E1A" stroke="#E82300"/>
<rect x="5" y="58.0833" width="68" height="68" rx="10" transform="rotate(-45 5 58.0833)" fill="#E82300"/>
<path d="M52.5 35C52.8662 35 53.2251 35.0806 53.5767 35.2417C53.9282 35.4028 54.2358 35.6079 54.4995 35.8569L74.1431 55.5005C74.436 55.7935 74.6484 56.123 74.7803 56.4893C74.9121 56.8555 74.9854 57.2363 75 57.6318C75 58.0127 74.9194 58.3716 74.7583 58.7085C74.5972 59.0454 74.3921 59.3384 74.1431 59.5874L54.5874 79.1431C54.0161 79.7144 53.3203 80 52.5 80C52.1338 80 51.7749 79.9194 51.4233 79.7583C51.0718 79.5972 50.7642 79.3921 50.5005 79.1431L30.8569 59.4995C30.6079 59.2505 30.4028 58.9502 30.2417 58.5986C30.0806 58.2471 30 57.8809 30 57.5C30 57.1191 30.0732 56.7456 30.2197 56.3794C30.3662 56.0132 30.5786 55.6909 30.8569 55.4126L44.3262 41.9434L49.4238 47.041C49.248 47.4658 49.1602 47.9126 49.1602 48.3813C49.1602 49.3188 49.4971 50.1245 50.1709 50.7983L50.3467 50.9741C50.376 51.0034 50.4126 51.0254 50.4565 51.04C50.5005 51.0547 50.5444 51.062 50.5884 51.062C50.6323 51.062 50.7056 51.0913 50.8081 51.1499V63.6084C50.6323 63.6816 50.4858 63.7842 50.3687 63.916C50.2515 64.0479 50.1196 64.1797 49.9731 64.3115C49.5923 64.6924 49.292 65.0952 49.0723 65.52C48.8525 65.9448 48.7427 66.4355 48.7427 66.9922C48.7427 67.4902 48.8379 67.9517 49.0283 68.3765C49.2188 68.8013 49.4751 69.1821 49.7974 69.519C50.1196 69.856 50.5005 70.1123 50.9399 70.2881C51.3794 70.4639 51.8481 70.5591 52.3462 70.5737C52.8442 70.5737 53.3203 70.4932 53.7744 70.332C54.2285 70.1709 54.6167 69.9438 54.939 69.6509C55.2612 69.3579 55.5249 68.9917 55.73 68.5522C55.9351 68.1128 56.0376 67.6367 56.0376 67.124C56.0376 66.8018 55.9937 66.4795 55.9058 66.1572C55.8179 65.835 55.686 65.5347 55.5103 65.2563C55.3345 64.978 55.1294 64.7144 54.895 64.4653C54.6606 64.2163 54.4043 64.0186 54.126 63.8721V51.7651L58.7842 56.4233C58.6084 56.8481 58.5205 57.2876 58.5205 57.7417C58.5205 58.2251 58.6084 58.6719 58.7842 59.082C58.96 59.4922 59.209 59.8584 59.5312 60.1807C59.8535 60.5029 60.2124 60.7446 60.6079 60.9058C61.0034 61.0669 61.4575 61.1621 61.9702 61.1914C62.4536 61.1914 62.9004 61.1035 63.3105 60.9277C63.7207 60.752 64.0869 60.5029 64.4092 60.1807C64.7314 59.8584 64.9731 59.4995 65.1343 59.104C65.2954 58.7085 65.3906 58.2544 65.4199 57.7417C65.4199 57.2729 65.332 56.8335 65.1562 56.4233C64.9805 56.0132 64.7314 55.647 64.4092 55.3247C64.0869 55.0024 63.728 54.7534 63.3325 54.5776C62.937 54.4019 62.4902 54.3066 61.9922 54.292C61.5967 54.292 61.2158 54.3579 60.8496 54.4897L55.8618 49.502C55.9937 49.1357 56.0596 48.7549 56.0596 48.3594C56.0596 47.876 55.9717 47.4292 55.7959 47.019C55.6201 46.6089 55.3711 46.2427 55.0488 45.9204C54.7266 45.5981 54.3677 45.3564 53.9722 45.1953C53.5767 45.0342 53.1226 44.9463 52.6099 44.9316C52.2583 44.9316 51.8921 44.9902 51.5112 45.1074L46.3257 39.9219L50.4126 35.8569C50.9839 35.2856 51.6797 35 52.5 35Z" fill="white"/>
</svg>
