<svg width="118" height="117" viewBox="0 0 118 117" fill="none" xmlns="http://www.w3.org/2000/svg">
<rect x="59.4482" y="0.707107" width="81.6618" height="81.6618" rx="14.5" transform="rotate(45 59.4482 0.707107)" fill="#0E0E1A" stroke="#E62F00"/>
<rect x="6.22534" y="58.3086" width="68" height="68" rx="10" transform="rotate(-45 6.22534 58.3086)" fill="#E62F00"/>
<g clip-path="url(#clip0_1027_2)">
<path d="M40.0202 78.6219L36.8342 42.7228H71.6163L68.427 78.6161L54.2034 82.5775L40.0202 78.6219Z" fill="#E62F00" stroke="white"/>
<path d="M54.2253 79.969L66.0965 76.6628L68.8893 45.2307H54.2253V79.969Z" fill="#E62F00"/>
<path d="M47.8719 54.2545H54.2253V49.7426H42.9636L43.0711 50.9531L44.175 63.3866H54.2253V58.8747H48.2823L47.8719 54.2545V54.2545ZM48.8841 65.6426H44.3756L45.0048 72.7269L54.2046 75.2925L54.2253 75.2868V70.5926L54.2056 70.5978L49.2039 69.241L48.8841 65.6426Z" fill="#D8D8D8"/>
<path d="M39.6257 32.2253H41.9081V34.4907H43.9959V32.2253H46.2784V39.0853H43.9961V36.7882H41.9082V39.0853H39.6259V32.2253H39.6257ZM49.2796 34.5003H47.2707V32.2253H53.5726V34.5003H51.5624V39.0853H49.2801V34.5003H49.2799H49.2796ZM54.5728 32.2253H56.9526L58.4165 34.6358L59.879 32.2253H62.2597V39.0853H59.9867V35.6851L58.4165 38.1242H58.3771L56.8059 35.6851V39.0853H54.5728V32.2253ZM63.3956 32.2253H65.6786V36.8179H68.8882V39.0853H63.3954V32.2253H63.3956Z" fill="white"/>
<path d="M54.2099 63.3866H59.7402L59.2188 69.2382L54.2097 70.5964V75.2904L63.4169 72.7269L63.4844 71.9646L64.5399 60.0863L64.6494 58.8747H54.2099V63.3866ZM54.2099 54.2435V54.2545H65.0581L65.1481 53.2404L65.3528 50.9531L65.4601 49.7426H54.2099V54.2436V54.2435Z" fill="white"/>
</g>
<defs>
<clipPath id="clip0_1027_2">
<rect width="36" height="51" fill="white" transform="translate(36.2253 32.2253)"/>
</clipPath>
</defs>
</svg>
