<svg width="117" height="117" viewBox="0 0 117 117" fill="none" xmlns="http://www.w3.org/2000/svg">
<rect x="58.4504" y="0.707107" width="81.6618" height="81.6618" rx="14.5" transform="rotate(45 58.4504 0.707107)" fill="#0E0E1A" stroke="#E6CE00"/>
<rect x="5" y="58.083" width="68" height="68" rx="10" transform="rotate(-45 5 58.083)" fill="#E6CE00"/>
<g clip-path="url(#clip0_1027_14)">
<path d="M35 40H70V75H35V40Z" fill="#E6CE00"/>
<path d="M44.2028 69.2485L46.8811 67.6275C47.3979 68.5437 47.8679 69.3189 48.9954 69.3189C50.0762 69.3189 50.7578 68.8961 50.7578 67.2517V56.0684H54.0468V67.2982C54.0468 70.7048 52.0499 72.2555 49.1364 72.2555C46.5053 72.2555 44.978 70.8928 44.2026 69.2482L44.2028 69.2485ZM55.8333 68.896L58.5113 67.3455C59.2164 68.4968 60.1327 69.3425 61.7536 69.3425C63.1166 69.3425 63.9856 68.6611 63.9856 67.7213C63.9856 66.5937 63.0928 66.1942 61.5892 65.5366L60.7671 65.1838C58.394 64.1739 56.82 62.9051 56.82 60.2268C56.82 57.7599 58.6995 55.8802 61.6363 55.8802C63.7273 55.8802 65.2309 56.6087 66.3116 58.5117L63.7505 60.1564C63.1866 59.1462 62.576 58.7468 61.6362 58.7468C60.6729 58.7468 60.062 59.3577 60.062 60.1564C60.062 61.1431 60.6729 61.5427 62.0824 62.1536L62.9047 62.5059C65.7006 63.7043 67.2746 64.9258 67.2746 67.6744C67.2746 70.6349 64.9488 72.2559 61.824 72.2559C58.7699 72.2559 56.7964 70.7993 55.8332 68.8961" fill="#0A0A0A"/>
</g>
<rect x="35.5" y="40.5" width="34" height="34" stroke="black"/>
<defs>
<clipPath id="clip0_1027_14">
<rect x="35" y="40" width="35" height="35" fill="white"/>
</clipPath>
</defs>
</svg>
