<svg width="118" height="117" viewBox="0 0 118 117" fill="none" xmlns="http://www.w3.org/2000/svg">
<rect x="59.4495" y="0.707107" width="81.6618" height="81.6618" rx="14.5" transform="rotate(45 59.4495 0.707107)" fill="#0E0E1A" stroke="#E60051"/>
<rect x="6" y="58.0833" width="68" height="68" rx="10" transform="rotate(-45 6 58.0833)" fill="#E60051"/>
<path d="M71.4542 59.8245C69.9797 59.9158 68.7181 60.3488 67.6749 60.9424C67.2361 60.1733 66.8023 59.4906 66.7036 58.9774C66.5921 58.3786 66.4787 58.0155 66.5304 57.2895C66.5824 56.5635 66.9413 55.5134 66.929 55.4356C66.917 55.3577 66.811 54.9943 65.9611 55.0346C65.1112 55.0748 64.3873 55.2888 64.3152 55.5207C64.2431 55.7527 64.1103 56.2791 64.0323 56.8178C63.9299 57.6097 62.5362 60.4944 61.7311 62.0098C61.4129 61.4543 61.1374 60.9667 61.0606 60.5702C60.9492 59.9714 60.8356 59.6084 60.8876 58.8824C60.9395 58.1563 61.2984 57.1065 61.2862 57.0284C61.2739 56.9506 61.1681 56.5871 60.3182 56.6275C59.4682 56.6677 58.7443 56.8816 58.6723 57.1136C58.6003 57.3457 58.5377 57.8836 58.3894 58.4108C58.241 58.938 56.4435 63.7243 55.9713 64.9613C55.7805 65.4619 55.5787 65.9582 55.3661 66.4497C55.3661 66.4497 55.3596 66.4736 55.3386 66.5141C55.2718 66.6682 55.2031 66.8215 55.1324 66.9738L55.1328 66.9815C55.0289 67.1998 54.9164 67.4025 54.8547 67.406C54.8083 67.4087 54.6914 66.8494 54.7946 66.0733C55.0117 64.4341 55.6025 61.8698 55.59 61.784C55.5873 61.737 55.7014 61.2904 55.0708 61.0981C54.4554 60.9051 54.2606 61.2933 54.2064 61.2964C54.1524 61.2994 54.1212 61.4349 54.1212 61.4349C54.1212 61.4349 54.6327 58.5607 52.6787 58.6714C51.4586 58.7405 49.8517 60.1912 49.0869 61.4606C48.1684 62.0377 47.2508 62.6163 46.3341 63.1963C45.8933 63.4807 45.4368 63.766 45.0103 64.0337C44.9776 64.0042 44.9446 63.9666 44.9118 63.9371C42.4036 61.5091 37.9301 59.9467 37.9207 56.4969C37.9192 55.2394 38.1575 51.9248 45.8316 47.4817C52.1499 43.862 57.3753 44.4699 58.3842 46.417C59.8276 49.1964 56.0733 54.7222 49.3979 55.8704C46.8504 56.3056 45.4498 55.3788 45.0888 55.022C44.7114 54.6503 44.6559 54.6298 44.529 54.7157C44.3195 54.8456 44.4784 55.1902 44.5671 55.3895C44.7982 55.9107 45.6777 56.8042 47.1017 57.1874C48.3604 57.5247 51.3774 57.5819 54.9341 55.9499C58.9134 54.1211 61.8436 49.4987 60.6985 45.8302C59.55 42.1068 53.3013 41.211 47.5746 43.6495C44.1705 45.1001 40.5135 47.2877 37.9484 50.011C34.9011 53.2488 34.5417 55.9337 34.8133 57.0345C35.7861 60.9406 41.2989 63.2064 43.5536 64.9886C43.4491 65.0574 43.3516 65.1181 43.2695 65.1699C42.2266 65.7712 38.2565 68.1731 37.3671 70.5265C36.3561 73.1931 37.8055 74.9818 38.7077 75.182C41.5087 75.8016 44.2639 74.2466 45.6548 71.8569C47.0457 69.4674 46.6909 66.4851 45.9105 65.1538C45.9018 65.1387 45.8933 65.1233 45.8769 65.1085C46.1456 64.9283 46.4215 64.7397 46.6903 64.5595C47.184 64.2241 47.6849 63.8995 48.1925 63.5861C47.9711 64.3297 47.8272 65.2103 47.8056 66.4691C47.7731 67.9487 48.4759 69.8265 49.2986 70.5344C49.6649 70.844 50.0745 70.8286 50.3372 70.8137C51.2484 70.7621 51.6143 69.9711 52.0185 69.0365C52.5115 67.8925 52.9402 66.5714 52.9402 66.5714C52.9402 66.5714 52.5126 70.1011 54.2116 70.0048C54.8294 69.9698 55.4088 69.1195 55.6633 68.6886L55.6638 68.6963C55.6638 68.6963 55.6778 68.672 55.7057 68.6154C55.7617 68.5101 55.7967 68.4451 55.7967 68.4451L55.7959 68.4296C56.0181 67.9768 56.5179 66.9503 57.2505 65.2504C58.1956 63.0591 59.0719 60.3372 59.0719 60.3372C59.0719 60.3372 59.2015 60.9821 59.5792 62.0454C59.8006 62.6695 60.226 63.3449 60.5732 64.0012C60.3461 64.3678 60.2026 64.5723 60.2026 64.5723L60.2109 64.5798C60.025 64.8574 59.8253 65.1595 59.6018 65.4553C58.8177 66.5214 57.88 67.7458 57.76 68.0903C57.6203 68.4991 57.6755 68.7869 57.9978 69.0044C58.2315 69.1641 58.6343 69.1648 59.0423 69.1182C59.7961 69.0204 60.3182 68.8022 60.5741 68.6699C60.9751 68.4979 61.441 68.2434 61.8697 67.8812C62.6611 67.2154 63.1128 66.3017 63.0005 65.1371C62.9409 64.4959 62.696 63.8653 62.4069 63.2763C62.4781 63.1624 62.5413 63.0488 62.6124 62.9347C63.8078 60.9256 64.6993 58.745 64.6993 58.745C64.6993 58.745 64.8289 59.39 65.2067 60.4534C65.3922 60.9931 65.7426 61.5706 66.0533 62.1345C64.8827 63.2148 64.1924 64.4328 63.9656 65.216C63.5599 66.6695 63.9746 67.2904 64.7013 67.3985C65.0296 67.4507 65.4841 67.2677 65.8155 67.0996C66.2399 66.9342 66.736 66.6625 67.2021 66.2744C67.9935 65.6088 68.74 64.7018 68.6275 63.5372C68.5741 63.0058 68.4054 62.4886 68.1835 61.9903C69.2012 61.4927 70.5313 61.1737 72.2571 61.2802C75.9581 61.5107 76.8158 63.7964 76.7321 64.7839C76.6486 65.7709 75.9066 66.3474 75.6612 66.5264C75.4154 66.7055 75.3337 66.765 75.3636 66.8812C75.4041 67.0518 75.5273 67.0371 75.7418 66.9934C76.0399 66.9216 77.6277 66.0927 77.595 64.2868C77.5805 61.9769 75.2757 59.5845 71.4542 59.8245ZM43.6457 71.1298C42.5018 72.5464 40.8318 73.1519 40.0737 72.7626C39.2598 72.3448 39.456 70.3374 40.8734 68.8267C41.7354 67.9055 42.8636 67.0318 43.6157 66.4942C43.787 66.3744 44.0408 66.203 44.3463 65.9891C44.3986 65.9546 44.4286 65.9373 44.4286 65.9373L44.6073 65.8092C45.2709 67.8151 44.8475 69.6391 43.6457 71.1298ZM52.1799 64.5001C51.8146 65.5741 51.0787 68.3116 50.5297 68.1934C50.0592 68.0943 49.658 66.0734 50.2005 64.0228C50.4753 62.9932 51.1097 61.7468 51.4925 61.2537C52.114 60.4639 52.8335 60.1715 53.0283 60.4672C53.275 60.8541 52.4052 63.8271 52.1799 64.5001ZM59.7102 67.6419C59.5378 67.7461 59.3716 67.8184 59.2916 67.7757C59.2359 67.7474 59.3601 67.6146 59.3601 67.6146C59.3601 67.6146 60.2223 66.5598 60.5594 66.0848C60.753 65.8066 60.9822 65.4793 61.2249 65.1118L61.2307 65.2136C61.2986 66.4124 60.2014 67.2841 59.7102 67.6419ZM65.2891 66.0134C65.1524 65.9268 65.1579 65.6121 65.5426 64.6078C65.6908 64.2143 66.0559 63.5492 66.7083 62.8913C66.7997 63.1376 66.8676 63.3775 66.8727 63.6051C66.9505 65.1177 65.9169 65.7421 65.2891 66.0134Z" fill="white"/>
</svg>
