<svg width="117" height="117" viewBox="0 0 117 117" fill="none" xmlns="http://www.w3.org/2000/svg">
<rect x="58.45" y="0.707107" width="81.6618" height="81.6618" rx="14.5" transform="rotate(45 58.45 0.707107)" fill="#0E0E1A" stroke="#009EE6"/>
<rect x="5.00024" y="58.0833" width="68" height="68" rx="10" transform="rotate(-45 5.00024 58.0833)" fill="#009EE6"/>
<g clip-path="url(#clip0_1027_11)">
<path d="M53.002 44.8C47.1353 44.8 43.4686 47.7334 42.002 53.6C44.202 50.6667 46.7686 49.5667 49.702 50.3C51.3758 50.718 52.5711 51.9317 53.8966 53.2774C56.0545 55.4664 58.5496 58 64.002 58C69.8686 58 73.5353 55.0667 75.002 49.2C72.802 52.1334 70.2353 53.2334 67.302 52.5C65.6281 52.082 64.4328 50.8684 63.1073 49.5227C60.9513 47.3337 58.4561 44.8 53.002 44.8ZM42.002 58C36.1353 58 32.4686 60.9334 31.002 66.8C33.202 63.8667 35.7686 62.7667 38.702 63.5C40.3758 63.918 41.5711 65.1317 42.8966 66.4774C45.0545 68.6664 47.5496 71.2001 53.002 71.2001C58.8686 71.2001 62.5353 68.2667 64.002 62.4C61.802 65.3334 59.2353 66.4334 56.302 65.7001C54.6281 65.2821 53.4328 64.0684 52.1073 62.7227C49.9513 60.5337 47.4561 58 42.002 58Z" fill="white"/>
</g>
<defs>
<clipPath id="clip0_1027_11">
<rect width="44" height="44" fill="white" transform="translate(31 36)"/>
</clipPath>
</defs>
</svg>
