<svg width="33" height="36" viewBox="0 0 33 36" fill="none" xmlns="http://www.w3.org/2000/svg">
<g clip-path="url(#clip0_431_231)">
<path d="M6.0256 -1C2.68768 -1 0 1.93202 0 5.57338V28.4267C0 32.068 2.68768 35 6.0256 35H17.3797V20.9263H13.9683V15.8593H17.3797V11.5303C17.3797 8.12917 19.3953 5.00638 24.0385 5.00638C25.9184 5.00638 27.3086 5.20327 27.3086 5.20327L27.1992 9.93504C27.1992 9.93504 25.7814 9.92042 24.2344 9.92042C22.56 9.92042 22.2915 10.762 22.2915 12.1592V15.8593H27.3323L27.1126 20.9263H22.2915V35.0001H26.9744C30.3123 35.0001 33 32.0681 33 28.4267V5.57342C33 1.93206 30.3123 -0.999964 26.9744 -0.999964L6.0256 -1Z" fill="white"/>
</g>
<defs>
<clipPath id="clip0_431_231">
<rect width="33" height="36" fill="white"/>
</clipPath>
</defs>
</svg>
