<svg width="42" height="42" viewBox="0 0 42 42" fill="none" xmlns="http://www.w3.org/2000/svg">
<path d="M36.54 4.42325C35.2572 3.1405 33.7137 2.5 31.9077 2.5H10.0555C8.2495 2.5 6.706 3.1405 5.42325 4.42325C4.1405 5.706 3.5 7.2495 3.5 9.0555V30.9077C3.5 32.7137 4.1405 34.2572 5.42325 35.54C6.706 36.8228 8.2495 37.4632 10.0555 37.4632H15.155C15.4875 37.4632 15.7378 37.451 15.9058 37.4282C16.1012 37.3891 16.2776 37.2848 16.4062 37.1325C16.5725 36.9575 16.6565 36.7038 16.6565 36.3713L16.6442 34.8225C16.6372 33.8355 16.6337 33.055 16.6337 32.4775L16.1087 32.5685C15.7762 32.6297 15.3563 32.656 14.847 32.649C14.3162 32.6392 13.7871 32.5859 13.265 32.4897C12.7092 32.3871 12.186 32.1531 11.739 31.8072C11.2709 31.4531 10.9217 30.9648 10.738 30.4072L10.5105 29.8822C10.3187 29.4681 10.0779 29.0786 9.793 28.722C9.4675 28.2968 9.13675 28.0098 8.8025 27.8575L8.645 27.7437C8.53518 27.6651 8.43528 27.5734 8.3475 27.4708C8.26366 27.3755 8.19464 27.2681 8.14275 27.1523C8.09725 27.0455 8.13575 26.958 8.2565 26.8898C8.379 26.8197 8.59775 26.7865 8.918 26.7865L9.373 26.8565C9.67575 26.916 10.052 27.098 10.4983 27.4007C10.9499 27.7086 11.3271 28.1134 11.6025 28.5855C11.9525 29.2068 12.3725 29.681 12.866 30.0082C13.3595 30.3337 13.8565 30.4982 14.357 30.4982C14.8575 30.4982 15.2898 30.4597 15.6555 30.3845C16.0092 30.3114 16.3529 30.1962 16.6793 30.0415C16.8158 29.0265 17.1868 28.2425 17.794 27.6965C17.0072 27.6194 16.2273 27.4825 15.4613 27.287C14.7136 27.0816 13.9946 26.7836 13.321 26.3997C12.6162 26.016 11.9936 25.4975 11.4887 24.8737C11.004 24.2665 10.605 23.4703 10.2935 22.485C9.98375 21.498 9.828 20.3588 9.828 19.069C9.828 17.2333 10.4265 15.6705 11.6252 14.379C11.0653 13 11.1178 11.4513 11.7845 9.738C12.2255 9.59975 12.8783 9.703 13.7428 10.0442C14.6073 10.3855 15.2408 10.6777 15.6433 10.9192C16.0458 11.1642 16.3678 11.369 16.611 11.5352C18.0337 11.1393 19.504 10.9403 20.9808 10.9437C22.484 10.9437 23.94 11.1415 25.3523 11.5352L26.2167 10.9893C26.8817 10.59 27.5831 10.2548 28.3115 9.98825C29.1165 9.68375 29.729 9.6015 30.156 9.738C30.8385 11.453 30.898 13 30.3363 14.3807C31.535 15.6705 32.1353 17.2332 32.1353 19.0707C32.1353 20.3605 31.9795 21.5033 31.668 22.4955C31.3583 23.4895 30.9557 24.2857 30.4622 24.886C29.9485 25.5018 29.3233 26.0153 28.6195 26.3997C27.8845 26.8092 27.1705 27.105 26.4792 27.287C25.7132 27.4831 24.9334 27.6206 24.1465 27.6982C24.934 28.3808 25.3295 29.457 25.3295 30.9288V36.3713C25.3295 36.6285 25.3662 36.8368 25.4432 36.996C25.4786 37.0727 25.5291 37.1415 25.5916 37.1984C25.6542 37.2552 25.7275 37.2988 25.8072 37.3267C25.9753 37.3862 26.1223 37.4248 26.2518 37.4388C26.3813 37.4562 26.5667 37.4615 26.8083 37.4615H31.9077C33.7137 37.4615 35.2572 36.821 36.54 35.5382C37.821 34.2572 38.4632 32.712 38.4632 30.906V9.0555C38.4632 7.2495 37.821 5.706 36.5382 4.42325H36.54Z" fill="white"/>
</svg>
