<svg width="37" height="40" viewBox="0 0 37 40" fill="none" xmlns="http://www.w3.org/2000/svg">
<path fill-rule="evenodd" clip-rule="evenodd" d="M11.1306 0.8655C13.0367 0.771 13.6445 0.75 18.5 0.75C23.3555 0.75 23.9632 0.77275 25.8678 0.8655C27.7723 0.95825 29.0722 1.2855 30.2097 1.75975C31.4009 2.2445 32.4815 3.00225 33.3752 3.98225C34.2852 4.943 34.9873 6.105 35.4358 7.3895C35.8778 8.6145 36.18 10.0145 36.2677 12.062C36.3555 14.1182 36.375 14.7727 36.375 20C36.375 25.229 36.3539 25.8835 36.2677 27.9362C36.1816 29.9837 35.8778 31.3837 35.4358 32.6087C34.9872 33.8934 34.2841 35.0574 33.3752 36.0195C32.4815 36.9995 31.4009 37.7555 30.2097 38.2385C29.0722 38.7145 27.7722 39.04 25.871 39.1345C23.9632 39.229 23.3555 39.25 18.5 39.25C13.6445 39.25 13.0367 39.2272 11.1306 39.1345C9.22937 39.0417 7.92937 38.7145 6.79187 38.2385C5.599 37.7554 4.51821 36.9982 3.62475 36.0195C2.71537 35.0582 2.01164 33.8948 1.56263 32.6105C1.12225 31.3855 0.82 29.9855 0.73225 27.938C0.6445 25.8818 0.625 25.2272 0.625 20C0.625 14.771 0.646125 14.1165 0.73225 12.0655C0.818375 10.0145 1.12225 8.6145 1.56263 7.3895C2.0123 6.10514 2.71657 4.9418 3.62637 3.9805C4.51857 3.00138 5.59827 2.24353 6.79025 1.75975C7.92775 1.2855 9.22775 0.96 11.129 0.8655H11.1306ZM25.7231 4.3305C23.8381 4.23775 23.2726 4.2185 18.5 4.2185C13.7274 4.2185 13.1619 4.23775 11.2769 4.3305C9.53325 4.41625 8.5875 4.7295 7.957 4.99375C7.12338 5.34375 6.527 5.7585 5.90138 6.43225C5.30832 7.05359 4.85192 7.80999 4.56562 8.646C4.32025 9.325 4.02937 10.3435 3.94975 12.2212C3.86363 14.2512 3.84575 14.8603 3.84575 20C3.84575 25.1397 3.86363 25.7487 3.94975 27.7787C4.02937 29.6565 4.32025 30.675 4.56562 31.354C4.85162 32.1888 5.30825 32.9465 5.90138 33.5677C6.47825 34.2065 7.18188 34.6983 7.957 35.0063C8.5875 35.2705 9.53325 35.5838 11.2769 35.6695C13.1619 35.7623 13.7257 35.7815 18.5 35.7815C23.2743 35.7815 23.8381 35.7623 25.7231 35.6695C27.4668 35.5838 28.4125 35.2705 29.043 35.0063C29.8766 34.6563 30.473 34.2415 31.0986 33.5677C31.6917 32.9465 32.1484 32.1888 32.4344 31.354C32.6798 30.675 32.9706 29.6565 33.0503 27.7787C33.1364 25.7487 33.1543 25.1397 33.1543 20C33.1543 14.8603 33.1364 14.2512 33.0503 12.2212C32.9706 10.3435 32.6798 9.325 32.4344 8.646C32.1094 7.74825 31.7243 7.106 31.0986 6.43225C30.5216 5.79362 29.8193 5.30212 29.043 4.99375C28.4125 4.7295 27.4668 4.41625 25.7231 4.3305ZM16.2169 25.9342C17.4919 26.5059 18.9117 26.583 20.2338 26.1525C21.5558 25.722 22.698 24.8106 23.4654 23.5739C24.2327 22.3372 24.5776 20.852 24.4411 19.3719C24.3046 17.8918 23.6951 16.5087 22.7169 15.4587C22.0933 14.7876 21.3392 14.2737 20.509 13.954C19.6789 13.6343 18.7932 13.5169 17.9158 13.6101C17.0384 13.7033 16.1911 14.0048 15.4349 14.493C14.6787 14.9811 14.0325 15.6438 13.5426 16.4332C13.0528 17.2227 12.7316 18.1193 12.6021 19.0584C12.4726 19.9976 12.5381 20.956 12.7939 21.8647C13.0496 22.7733 13.4893 23.6096 14.0812 24.3133C14.6731 25.017 15.4025 25.5706 16.2169 25.9342ZM12.0033 13.0035C12.8564 12.0847 13.8693 11.3559 14.984 10.8586C16.0987 10.3614 17.2934 10.1055 18.5 10.1055C19.7066 10.1055 20.9013 10.3614 22.016 10.8586C23.1307 11.3559 24.1436 12.0847 24.9967 13.0035C25.8499 13.9223 26.5267 15.0131 26.9884 16.2135C27.4501 17.414 27.6878 18.7006 27.6878 20C27.6878 21.2994 27.4501 22.586 26.9884 23.7865C26.5267 24.9869 25.8499 26.0777 24.9967 26.9965C23.2737 28.8521 20.9368 29.8945 18.5 29.8945C16.0632 29.8945 13.7263 28.8521 12.0033 26.9965C10.2802 25.1409 9.31221 22.6242 9.31221 20C9.31221 17.3758 10.2802 14.8591 12.0033 13.0035ZM29.7255 11.579C29.9369 11.3642 30.1062 11.1059 30.2232 10.8195C30.3403 10.533 30.4028 10.2241 30.4071 9.91113C30.4113 9.59816 30.3572 9.28746 30.2479 8.99742C30.1386 8.70738 29.9765 8.44389 29.7709 8.22257C29.5654 8.00124 29.3208 7.82658 29.0514 7.70891C28.7821 7.59124 28.4936 7.53296 28.203 7.53752C27.9124 7.54208 27.6256 7.60939 27.3595 7.73547C27.0935 7.86154 26.8537 8.04382 26.6542 8.2715C26.2664 8.7143 26.054 9.30246 26.0623 9.91113C26.0705 10.5198 26.2987 11.101 26.6984 11.5315C27.0981 11.9619 27.6378 12.2077 28.203 12.2165C28.7682 12.2254 29.3143 11.9967 29.7255 11.579Z" fill="white"/>
</svg>
