<svg width="42" height="42" viewBox="0 0 42 42" fill="none" xmlns="http://www.w3.org/2000/svg">
<path d="M36.4358 1.625H5.76516C4.08926 1.625 2.625 2.83086 2.625 4.48707V35.2258C2.625 36.8911 4.08926 38.375 5.76516 38.375H36.4268C38.1117 38.375 39.375 36.8812 39.375 35.2258V4.48707C39.3848 2.83086 38.1117 1.625 36.4358 1.625ZM14.0167 32.2579H8.75191V15.8886H14.0167V32.2579ZM11.5664 13.3998H11.5287C9.84375 13.3998 8.75273 12.1455 8.75273 10.5754C8.75273 8.97664 9.87246 7.75191 11.5951 7.75191C13.3178 7.75191 14.3719 8.96762 14.4096 10.5754C14.4088 12.1455 13.3178 13.3998 11.5664 13.3998ZM33.2579 32.2579H27.9932V23.3075C27.9932 21.1632 27.227 19.6981 25.3222 19.6981C23.867 19.6981 23.0057 20.6825 22.6226 21.6414C22.479 21.986 22.4405 22.4552 22.4405 22.9343V32.2579H17.1757V15.8886H22.4405V18.1666C23.2066 17.0756 24.4035 15.5055 27.1884 15.5055C30.6444 15.5055 33.2587 17.7835 33.2587 22.6947L33.2579 32.2579Z" fill="white"/>
</svg>
