<svg width="105" height="101" viewBox="0 0 105 101" fill="none" xmlns="http://www.w3.org/2000/svg">
<rect width="72.0035" height="72.0195" rx="15" transform="matrix(0.714913 -0.699214 0.720146 0.693822 0.913086 50.3458)" fill="url(#paint0_linear_1005_5)"/>
<path d="M65.75 39.5H59.5V38.3125C59.4959 37.3689 59.0995 36.465 58.3971 35.7977C57.6947 35.1305 56.7433 34.7539 55.75 34.75H48.25C47.2567 34.7539 46.3053 35.1305 45.6029 35.7977C44.9005 36.465 44.5041 37.3689 44.5 38.3125V39.5H38.25C37.587 39.5 36.9511 39.7502 36.4822 40.1956C36.0134 40.641 35.75 41.2451 35.75 41.875V60.875C35.75 61.5049 36.0134 62.109 36.4822 62.5544C36.9511 62.9998 37.587 63.25 38.25 63.25H65.75C66.413 63.25 67.0489 62.9998 67.5178 62.5544C67.9866 62.109 68.25 61.5049 68.25 60.875V41.875C68.25 41.2451 67.9866 40.641 67.5178 40.1956C67.0489 39.7502 66.413 39.5 65.75 39.5V39.5ZM47 38.3125C47 37.9976 47.1317 37.6955 47.3661 37.4728C47.6005 37.2501 47.9185 37.125 48.25 37.125H55.75C56.0815 37.125 56.3995 37.2501 56.6339 37.4728C56.8683 37.6955 57 37.9976 57 38.3125V39.5H47V38.3125ZM65.75 41.875V52.5625H38.25V41.875H65.75ZM65.75 60.875H38.25V54.9375H65.75V60.875Z" fill="#FBFBFB" stroke="white"/>
<defs>
<linearGradient id="paint0_linear_1005_5" x1="0.197693" y1="-0.0725117" x2="71.8219" y2="72.076" gradientUnits="userSpaceOnUse">
<stop stop-color="#F9C200"/>
<stop offset="1" stop-color="#EB0572"/>
</linearGradient>
</defs>
</svg>
