<svg width="104" height="101" viewBox="0 0 104 101" fill="none" xmlns="http://www.w3.org/2000/svg">
<rect width="72.0037" height="72.0198" rx="15" transform="matrix(0.714913 -0.699214 0.720146 0.693822 0.344727 50.3459)" fill="url(#paint0_linear_1006_6)"/>
<path d="M52.4999 63.2998C54.6538 63.2998 56.3999 61.5985 56.3999 59.4998C56.3999 57.4011 54.6538 55.6998 52.4999 55.6998C50.3459 55.6998 48.5999 57.4011 48.5999 59.4998C48.5999 61.5985 50.3459 63.2998 52.4999 63.2998Z" fill="white"/>
<path d="M34.95 45.0599C37.1459 42.4316 39.8464 40.3267 42.8723 38.8849C45.8982 37.4431 49.1801 36.6974 52.5 36.6974C55.8198 36.6974 59.1017 37.4431 62.1276 38.8849C65.1535 40.3267 67.8541 42.4316 70.0499 45.0599L67.1249 47.7199C65.295 45.4758 63.0445 43.6785 60.523 42.4474C58.0014 41.2163 55.2665 40.5796 52.5 40.5796C49.7334 40.5796 46.9985 41.2163 44.4769 42.4474C41.9554 43.6785 39.7049 45.4758 37.875 47.7199L34.95 45.0599ZM42.165 51.1399C43.4463 49.5968 45.0437 48.3566 46.8456 47.5058C48.6475 46.6551 50.6105 46.2143 52.5975 46.2143C54.5844 46.2143 56.5474 46.6551 58.3493 47.5058C60.1512 48.3566 61.7486 49.5968 63.0299 51.1399L60.3 53.7999C59.3864 52.6238 58.2287 51.6746 56.9124 51.0223C55.5962 50.3701 54.1549 50.0315 52.695 50.0315C51.235 50.0315 49.7937 50.3701 48.4775 51.0223C47.1612 51.6746 46.0035 52.6238 45.09 53.7999L42.165 51.1399Z" fill="white"/>
<defs>
<linearGradient id="paint0_linear_1006_6" x1="0.197694" y1="-0.072512" x2="71.8222" y2="72.0763" gradientUnits="userSpaceOnUse">
<stop stop-color="#EB0572"/>
<stop offset="1" stop-color="#CD1BF7"/>
</linearGradient>
</defs>
</svg>
