<svg width="551" height="551" viewBox="0 0 551 551" fill="none" xmlns="http://www.w3.org/2000/svg">
<path d="M498.729 197.751C498.729 185.925 488.678 181.195 488.678 181.195L229.716 31.5984C224.09 32.0541 223.527 34.2529 223.213 38.6939V94.8665V241.507C223.691 247.096 225.201 249.507 229.716 252.741L491.042 403.52C496.955 405.294 498.729 399.972 498.729 399.972V394.06V373.364V197.751Z" fill="#272626"/>
<path d="M491.043 417.711C493.297 412.428 494.075 409.359 491.043 402.929L230.899 253.332C224.666 250.372 221.168 250.299 214.935 253.332L36.3823 357.4C35.4433 363.854 36.4349 366.642 39.3385 370.999L297.708 520.004C304.142 523.101 307.874 524.054 315.446 520.004L491.043 417.711Z" fill="#716F72"/>
<path d="M295.935 512.909C304.295 517.45 309.301 517.522 318.993 511.726L491.634 410.615C492.241 408.077 492.307 406.65 491.634 404.111L229.126 252.15C223.654 250.617 220.891 250.947 216.118 252.15L38.1565 355.626C35.104 358.65 35.6879 360.099 36.3828 362.721L295.935 512.909Z" fill="#949397"/>
<path d="M258.096 423.033L194.834 385.781C192.262 384.245 190.692 384.384 187.739 385.781L146.944 410.615C145.008 412.03 145.223 412.957 146.944 414.755L209.023 451.415C212.16 452.789 213.967 453.421 218.483 450.823L258.687 426.58C259.269 424.698 259.225 423.871 258.096 423.033Z" fill="#C1C0C4"/>
<path d="M362.286 459.124C363.562 458.312 363.509 456.431 362.189 455.692L336.529 441.321C335.92 440.98 335.176 440.981 334.568 441.325L328.748 444.615L325.02 446.722C323.668 447.487 323.665 449.434 325.016 450.202L337.026 457.032L351.056 465.01C351.699 465.376 352.493 465.357 353.118 464.959L362.286 459.124Z" fill="#151925"/>
<path d="M486.904 195.977L233.264 46.9717V239.141L486.904 389.329V195.977Z" fill="white"/>
<path d="M487.495 195.386L413.591 151.039C312.124 153.036 280.476 179.731 238.585 242.098L487.495 389.329V195.386Z" fill="#DADADA"/>
<path d="M391.221 440.817C392.505 440 392.441 438.104 391.105 437.374L375.536 428.882C374.934 428.553 374.206 428.556 373.607 428.889L369.248 431.311L364.365 434.316C363.087 435.102 363.098 436.963 364.384 437.734L365.996 438.702L380.026 446.68C380.67 447.047 381.464 447.027 382.089 446.629L391.221 440.817Z" fill="#151925"/>
<path d="M390.698 441.15C392.218 440.183 392.142 437.94 390.561 437.078L375.712 428.978C375.001 428.59 374.14 428.593 373.431 428.987L369.248 431.311L364.877 434.001C363.366 434.931 363.378 437.131 364.899 438.044L365.996 438.702L379.835 446.572C380.597 447.005 381.535 446.981 382.274 446.511L390.698 441.15Z" fill="#151925"/>
<path d="M181.923 336.75C183.208 335.933 183.144 334.036 181.807 333.307L166.239 324.814C165.637 324.486 164.909 324.489 164.309 324.822L159.951 327.244L155.067 330.249C153.79 331.035 153.801 332.895 155.087 333.667L156.699 334.635L170.729 342.613C171.373 342.979 172.166 342.96 172.791 342.562L181.923 336.75Z" fill="#151925"/>
<path d="M181.401 337.083C182.92 336.116 182.845 333.873 181.264 333.011L166.415 324.911C165.703 324.522 164.842 324.526 164.134 324.919L159.951 327.244L155.579 329.934C154.069 330.864 154.081 333.064 155.602 333.976L156.699 334.635L170.538 342.505C171.299 342.938 172.238 342.914 172.977 342.444L181.401 337.083Z" fill="#151925"/>
<path d="M225.675 311.916C226.959 311.098 226.895 309.202 225.559 308.473L209.99 299.98C209.388 299.652 208.66 299.655 208.061 299.988L203.702 302.409L198.819 305.415C197.542 306.201 197.552 308.061 198.838 308.833L200.45 309.8L214.48 317.779C215.124 318.145 215.918 318.125 216.543 317.728L225.675 311.916Z" fill="#151925"/>
<path d="M225.152 312.248C226.672 311.281 226.596 309.039 225.015 308.177L210.166 300.076C209.455 299.688 208.594 299.692 207.885 300.085L203.702 302.409L199.331 305.1C197.82 306.029 197.833 308.23 199.353 309.142L200.45 309.8L214.289 317.67C215.051 318.103 215.989 318.08 216.728 317.61L225.152 312.248Z" fill="#151925"/>
<path d="M330.648 441.323C331.841 440.507 331.801 438.733 330.571 437.972L321.899 432.603C321.213 432.178 320.34 432.207 319.683 432.676L316.628 434.859L314.263 436.632L312.512 437.884C311.365 438.703 311.402 440.42 312.584 441.188L320.831 446.549C321.508 446.989 322.383 446.978 323.05 446.522L330.648 441.323Z" fill="#151925"/>
<path d="M313.502 363.273C314.696 362.456 314.655 360.683 313.426 359.922L304.753 354.552C304.067 354.128 303.194 354.157 302.538 354.625L299.483 356.808L297.118 358.582L295.366 359.833C294.219 360.652 294.257 362.369 295.439 363.137L303.685 368.498C304.362 368.938 305.238 368.928 305.905 368.472L313.502 363.273Z" fill="#151925"/>
<path d="M295.765 370.368C296.958 369.552 296.918 367.778 295.689 367.017L287.016 361.648C286.33 361.224 285.457 361.252 284.801 361.721L281.745 363.904L279.38 365.678L277.629 366.929C276.482 367.748 276.52 369.465 277.701 370.233L285.948 375.594C286.625 376.034 287.501 376.024 288.167 375.567L295.765 370.368Z" fill="#151925"/>
<path d="M291.035 384.559C292.228 383.743 292.188 381.969 290.959 381.208L282.286 375.839C281.6 375.415 280.727 375.443 280.071 375.912L277.015 378.095L274.65 379.869L272.899 381.12C271.752 381.939 271.79 383.656 272.971 384.424L281.218 389.785C281.895 390.225 282.771 390.215 283.437 389.758L291.035 384.559Z" fill="#151925"/>
<path d="M285.123 396.385C286.316 395.569 286.275 393.795 285.046 393.034L276.373 387.665C275.688 387.24 274.814 387.269 274.158 387.738L271.103 389.921L268.738 391.694L266.986 392.946C265.839 393.765 265.877 395.482 267.059 396.25L275.305 401.611C275.982 402.051 276.858 402.04 277.525 401.584L285.123 396.385Z" fill="#151925"/>
<path d="M160.963 343.169C162.157 342.353 162.116 340.579 160.887 339.818L152.214 334.449C151.528 334.024 150.655 334.053 149.999 334.522L146.943 336.704L144.579 338.478L142.827 339.729C141.68 340.549 141.718 342.265 142.9 343.034L151.146 348.394C151.823 348.835 152.699 348.824 153.366 348.368L160.963 343.169Z" fill="#151925"/>
<path d="M145.591 334.891C146.784 334.074 146.744 332.301 145.515 331.54L136.842 326.171C136.156 325.746 135.283 325.775 134.627 326.244L131.571 328.426L129.206 330.2L127.455 331.451C126.308 332.27 126.346 333.987 127.527 334.755L135.774 340.116C136.451 340.556 137.327 340.546 137.993 340.09L145.591 334.891Z" fill="#151925"/>
<path d="M224.817 363.273C226.01 362.456 225.969 360.683 224.74 359.922L216.068 354.552C215.382 354.128 214.508 354.157 213.852 354.625L210.797 356.808L208.432 358.582L206.681 359.833C205.534 360.652 205.571 362.369 206.753 363.137L215 368.498C215.677 368.938 216.552 368.928 217.219 368.472L224.817 363.273Z" fill="#151925"/>
<path d="M209.445 353.812C210.638 352.996 210.597 351.222 209.368 350.461L200.696 345.092C200.01 344.667 199.136 344.696 198.48 345.165L195.425 347.347L193.06 349.121L191.308 350.372C190.162 351.192 190.199 352.908 191.381 353.677L199.628 359.037C200.305 359.478 201.18 359.467 201.847 359.011L209.445 353.812Z" fill="#151925"/>
<path d="M195.255 345.534C196.448 344.718 196.407 342.944 195.178 342.183L186.506 336.814C185.82 336.39 184.946 336.418 184.29 336.887L181.235 339.07L178.87 340.844L177.119 342.095C175.972 342.914 176.009 344.631 177.191 345.399L185.438 350.76C186.115 351.2 186.99 351.19 187.657 350.733L195.255 345.534Z" fill="#151925"/>
<path d="M160.963 325.43C162.157 324.614 162.116 322.84 160.887 322.079L152.214 316.71C151.528 316.285 150.655 316.314 149.999 316.783L146.943 318.965L144.579 320.739L142.827 321.991C141.68 322.81 141.718 324.527 142.9 325.295L151.146 330.655C151.823 331.096 152.699 331.085 153.366 330.629L160.963 325.43Z" fill="#151925"/>
<path d="M175.153 317.152C176.346 316.336 176.305 314.562 175.076 313.801L166.404 308.432C165.718 308.007 164.844 308.036 164.188 308.505L161.133 310.687L158.768 312.461L157.017 313.712C155.87 314.532 155.907 316.249 157.089 317.017L165.336 322.377C166.013 322.818 166.888 322.807 167.555 322.351L175.153 317.152Z" fill="#151925"/>
<path d="M190.525 308.874C191.718 308.058 191.677 306.284 190.448 305.523L181.776 300.154C181.09 299.729 180.216 299.758 179.56 300.227L176.505 302.409L174.14 304.183L172.389 305.434C171.242 306.254 171.279 307.97 172.461 308.739L180.708 314.099C181.385 314.54 182.26 314.529 182.927 314.073L190.525 308.874Z" fill="#151925"/>
<path d="M203.532 300.596C204.725 299.78 204.685 298.006 203.456 297.245L194.783 291.876C194.097 291.451 193.224 291.48 192.568 291.949L189.512 294.131L187.147 295.905L185.396 297.156C184.249 297.976 184.287 299.692 185.468 300.461L193.715 305.821C194.392 306.262 195.268 306.251 195.934 305.795L203.532 300.596Z" fill="#151925"/>
<path d="M246.102 358.543C247.295 357.726 247.254 355.952 246.025 355.191L237.352 349.822C236.667 349.398 235.793 349.426 235.137 349.895L232.082 352.078L229.717 353.852L227.965 355.103C226.818 355.922 226.856 357.639 228.038 358.407L236.284 363.768C236.961 364.208 237.837 364.198 238.504 363.742L246.102 358.543Z" fill="#151925"/>
<path d="M230.73 349.082C231.923 348.265 231.882 346.492 230.653 345.731L221.98 340.361C221.295 339.937 220.421 339.966 219.765 340.435L216.71 342.617L214.345 344.391L212.593 345.642C211.446 346.461 211.484 348.178 212.666 348.946L220.912 354.307C221.589 354.747 222.465 354.737 223.132 354.281L230.73 349.082Z" fill="#151925"/>
<path d="M215.357 340.804C216.55 339.988 216.51 338.214 215.28 337.453L206.608 332.084C205.922 331.659 205.048 331.688 204.392 332.157L201.337 334.339L198.972 336.113L197.221 337.364C196.074 338.184 196.111 339.9 197.293 340.669L205.54 346.029C206.217 346.47 207.092 346.459 207.759 346.003L215.357 340.804Z" fill="#151925"/>
<path d="M203.532 317.152C204.725 316.336 204.685 314.562 203.456 313.801L194.783 308.432C194.097 308.007 193.224 308.036 192.568 308.505L189.512 310.687L187.147 312.461L185.396 313.712C184.249 314.532 184.287 316.249 185.468 317.017L193.715 322.377C194.392 322.818 195.268 322.807 195.934 322.351L203.532 317.152Z" fill="#151925"/>
<path d="M265.021 352.63C266.214 351.813 266.174 350.04 264.944 349.279L256.272 343.909C255.586 343.485 254.713 343.514 254.056 343.982L251.001 346.165L248.636 347.939L246.885 349.19C245.738 350.009 245.775 351.726 246.957 352.494L255.204 357.855C255.881 358.295 256.757 358.285 257.423 357.829L265.021 352.63Z" fill="#151925"/>
<path d="M249.648 343.169C250.842 342.353 250.801 340.579 249.572 339.818L240.899 334.449C240.213 334.024 239.34 334.053 238.684 334.522L235.629 336.704L233.264 338.478L231.512 339.729C230.365 340.549 230.403 342.265 231.585 343.034L239.831 348.394C240.508 348.835 241.384 348.824 242.051 348.368L249.648 343.169Z" fill="#151925"/>
<path d="M234.276 334.891C235.47 334.074 235.429 332.301 234.2 331.54L225.527 326.171C224.841 325.746 223.968 325.775 223.312 326.244L220.256 328.426L217.891 330.2L216.14 331.451C214.993 332.27 215.031 333.987 216.213 334.755L224.459 340.116C225.136 340.556 226.012 340.546 226.679 340.09L234.276 334.891Z" fill="#151925"/>
<path d="M220.087 325.43C221.28 324.614 221.239 322.84 220.01 322.079L211.338 316.71C210.652 316.285 209.778 316.314 209.122 316.783L206.067 318.965L203.702 320.739L201.951 321.991C200.804 322.81 200.841 324.527 202.023 325.295L210.27 330.655C210.947 331.096 211.822 331.085 212.489 330.629L220.087 325.43Z" fill="#151925"/>
<path d="M299.313 354.995C300.506 354.178 300.465 352.405 299.236 351.644L290.563 346.274C289.878 345.85 289.004 345.879 288.348 346.347L285.293 348.53L282.928 350.304L281.176 351.555C280.029 352.374 280.067 354.091 281.249 354.859L289.495 360.22C290.172 360.66 291.048 360.65 291.715 360.194L299.313 354.995Z" fill="#151925"/>
<path d="M283.94 346.717C285.134 345.9 285.093 344.127 283.864 343.366L275.191 337.996C274.505 337.572 273.632 337.601 272.976 338.069L269.92 340.252L267.556 342.026L265.804 343.277C264.657 344.096 264.695 345.813 265.877 346.581L274.123 351.942C274.8 352.382 275.676 352.372 276.343 351.916L283.94 346.717Z" fill="#151925"/>
<path d="M269.751 337.256C270.944 336.439 270.903 334.666 269.674 333.905L261.001 328.536C260.316 328.111 259.442 328.14 258.786 328.609L255.731 330.791L253.366 332.565L251.614 333.816C250.467 334.635 250.505 336.352 251.687 337.12L259.933 342.481C260.61 342.921 261.486 342.911 262.153 342.455L269.751 337.256Z" fill="#151925"/>
<path d="M253.196 328.978C254.389 328.161 254.348 326.388 253.119 325.627L244.447 320.257C243.761 319.833 242.887 319.862 242.231 320.331L239.176 322.513L236.811 324.287L235.059 325.538C233.913 326.357 233.95 328.074 235.132 328.842L243.378 334.203C244.056 334.643 244.931 334.633 245.598 334.177L253.196 328.978Z" fill="#151925"/>
<path d="M239.006 320.7C240.199 319.884 240.159 318.11 238.93 317.349L230.257 311.98C229.571 311.555 228.698 311.584 228.042 312.053L224.986 314.236L222.621 316.009L220.87 317.261C219.723 318.08 219.761 319.797 220.943 320.565L229.189 325.926C229.866 326.366 230.742 326.355 231.409 325.899L239.006 320.7Z" fill="#151925"/>
<path d="M279.21 360.908C280.404 360.091 280.363 358.318 279.134 357.557L270.461 352.187C269.776 351.763 268.902 351.792 268.246 352.26L265.191 354.443L262.826 356.217L261.074 357.468C259.927 358.287 259.965 360.004 261.147 360.772L269.393 366.133C270.07 366.573 270.946 366.563 271.613 366.107L279.21 360.908Z" fill="#151925"/>
<path d="M276.846 376.281C278.039 375.465 277.998 373.691 276.769 372.93L268.096 367.561C267.411 367.136 266.537 367.165 265.881 367.634L262.826 369.816L260.461 371.59L258.709 372.841C257.562 373.661 257.6 375.377 258.782 376.146L267.028 381.506C267.706 381.947 268.581 381.936 269.248 381.48L276.846 376.281Z" fill="#151925"/>
<path d="M261.474 366.821C262.667 366.004 262.626 364.231 261.397 363.47L252.724 358.1C252.039 357.676 251.165 357.705 250.509 358.173L247.454 360.356L245.089 362.13L243.337 363.381C242.19 364.2 242.228 365.917 243.41 366.685L251.656 372.046C252.334 372.486 253.209 372.476 253.876 372.02L261.474 366.821Z" fill="#151925"/>
<path d="M269.751 388.107C270.944 387.291 270.903 385.517 269.674 384.756L261.001 379.387C260.316 378.962 259.442 378.991 258.786 379.46L255.731 381.642L253.366 383.416L251.614 384.667C250.467 385.487 250.505 387.203 251.687 387.972L259.933 393.332C260.61 393.773 261.486 393.762 262.153 393.306L269.751 388.107Z" fill="#151925"/>
<path d="M254.378 379.829C255.572 379.012 255.531 377.239 254.302 376.478L245.629 371.109C244.943 370.684 244.07 370.713 243.414 371.182L240.358 373.364L237.994 375.138L236.242 376.389C235.095 377.208 235.133 378.925 236.315 379.693L244.561 385.054C245.238 385.494 246.114 385.484 246.781 385.028L254.378 379.829Z" fill="#151925"/>
<path d="M240.189 371.551C241.382 370.734 241.342 368.961 240.112 368.2L231.44 362.83C230.754 362.406 229.881 362.435 229.224 362.904L226.169 365.086L223.804 366.86L222.053 368.111C220.906 368.93 220.943 370.647 222.125 371.415L230.372 376.776C231.049 377.216 231.924 377.206 232.591 376.75L240.189 371.551Z" fill="#151925"/>
<path d="M222.452 378.647C223.645 377.83 223.604 376.056 222.375 375.295L213.702 369.926C213.017 369.502 212.143 369.53 211.487 369.999L208.432 372.182L206.067 373.956L204.315 375.207C203.168 376.026 203.206 377.743 204.388 378.511L212.634 383.872C213.312 384.312 214.187 384.302 214.854 383.846L222.452 378.647Z" fill="#151925"/>
<path d="M207.08 370.368C208.273 369.552 208.232 367.778 207.003 367.017L198.33 361.648C197.645 361.224 196.771 361.252 196.115 361.721L193.06 363.904L190.695 365.678L188.943 366.929C187.796 367.748 187.834 369.465 189.016 370.233L197.262 375.594C197.94 376.034 198.815 376.024 199.482 375.567L207.08 370.368Z" fill="#151925"/>
<path d="M191.708 360.908C192.901 360.091 192.86 358.318 191.631 357.557L182.958 352.187C182.273 351.763 181.399 351.792 180.743 352.26L177.688 354.443L175.323 356.217L173.571 357.468C172.424 358.287 172.462 360.004 173.644 360.772L181.89 366.133C182.567 366.573 183.443 366.563 184.11 366.107L191.708 360.908Z" fill="#151925"/>
<path d="M177.518 352.63C178.711 351.813 178.671 350.04 177.441 349.279L168.769 343.909C168.083 343.485 167.21 343.514 166.553 343.982L163.498 346.165L161.133 347.939L159.382 349.19C158.235 350.009 158.273 351.726 159.454 352.494L167.701 357.855C168.378 358.295 169.254 358.285 169.92 357.829L177.518 352.63Z" fill="#151925"/>
<path d="M311.137 378.647C312.33 377.83 312.29 376.056 311.061 375.295L302.388 369.926C301.702 369.502 300.829 369.53 300.173 369.999L297.117 372.182L294.752 373.956L293.001 375.207C291.854 376.026 291.892 377.743 293.073 378.511L301.32 383.872C301.997 384.312 302.873 384.302 303.539 383.846L311.137 378.647Z" fill="#151925"/>
<path d="M325.327 386.925C326.52 386.108 326.48 384.335 325.251 383.574L316.578 378.204C315.892 377.78 315.019 377.809 314.363 378.277L311.307 380.46L308.942 382.234L307.191 383.485C306.044 384.304 306.082 386.021 307.263 386.789L315.51 392.15C316.187 392.59 317.063 392.58 317.729 392.124L325.327 386.925Z" fill="#151925"/>
<path d="M340.699 396.385C341.892 395.569 341.852 393.795 340.623 393.034L331.95 387.665C331.264 387.24 330.391 387.269 329.735 387.738L326.679 389.921L324.314 391.694L322.563 392.946C321.416 393.765 321.454 395.482 322.635 396.25L330.882 401.611C331.559 402.051 332.435 402.04 333.101 401.584L340.699 396.385Z" fill="#151925"/>
<path d="M354.889 404.663C356.082 403.847 356.041 402.073 354.812 401.312L346.139 395.943C345.454 395.518 344.58 395.547 343.924 396.016L340.869 398.198L338.504 399.972L336.752 401.223C335.605 402.043 335.643 403.759 336.825 404.528L345.071 409.888C345.749 410.329 346.624 410.318 347.291 409.862L354.889 404.663Z" fill="#151925"/>
<path d="M371.443 412.941C372.637 412.125 372.596 410.351 371.367 409.59L362.694 404.221C362.008 403.796 361.135 403.825 360.479 404.294L357.423 406.476L355.058 408.25L353.307 409.501C352.16 410.321 352.198 412.038 353.38 412.806L361.626 418.166C362.303 418.607 363.179 418.596 363.846 418.14L371.443 412.941Z" fill="#151925"/>
<path d="M330.057 372.733C331.25 371.917 331.209 370.143 329.98 369.382L321.307 364.013C320.622 363.589 319.748 363.617 319.092 364.086L316.037 366.269L313.672 368.043L311.92 369.294C310.773 370.113 310.811 371.83 311.993 372.598L320.239 377.959C320.917 378.399 321.792 378.389 322.459 377.932L330.057 372.733Z" fill="#151925"/>
<path d="M344.246 381.011C345.439 380.195 345.399 378.421 344.169 377.66L335.497 372.291C334.811 371.867 333.938 371.895 333.281 372.364L330.226 374.547L327.861 376.321L326.11 377.572C324.963 378.391 325.001 380.108 326.182 380.876L334.429 386.237C335.106 386.677 335.982 386.667 336.648 386.211L344.246 381.011Z" fill="#151925"/>
<path d="M418.742 424.767C419.935 423.95 419.895 422.177 418.666 421.416L409.993 416.047C409.307 415.622 408.434 415.651 407.778 416.12L404.722 418.302L402.357 420.076L400.606 421.327C399.459 422.146 399.497 423.863 400.678 424.631L408.925 429.992C409.602 430.432 410.478 430.422 411.144 429.966L418.742 424.767Z" fill="#151925"/>
<path d="M403.37 415.306C404.563 414.49 404.523 412.716 403.293 411.955L394.621 406.586C393.935 406.162 393.062 406.19 392.405 406.659L389.35 408.842L386.985 410.616L385.234 411.867C384.087 412.686 384.125 414.403 385.306 415.171L393.553 420.532C394.23 420.972 395.106 420.962 395.772 420.505L403.37 415.306Z" fill="#151925"/>
<path d="M389.181 407.028C390.374 406.212 390.333 404.438 389.104 403.677L380.431 398.308C379.746 397.884 378.872 397.912 378.216 398.381L375.161 400.564L372.796 402.338L371.044 403.589C369.897 404.408 369.935 406.125 371.117 406.893L379.363 412.254C380.041 412.694 380.916 412.684 381.583 412.227L389.181 407.028Z" fill="#151925"/>
<path d="M373.809 398.75C375.002 397.934 374.961 396.16 373.732 395.399L365.059 390.03C364.374 389.605 363.5 389.634 362.844 390.103L359.789 392.286L357.424 394.059L355.672 395.311C354.525 396.13 354.563 397.847 355.745 398.615L363.991 403.976C364.669 404.416 365.544 404.405 366.211 403.949L373.809 398.75Z" fill="#151925"/>
<path d="M359.619 389.29C360.812 388.473 360.771 386.7 359.542 385.939L350.869 380.569C350.184 380.145 349.31 380.174 348.654 380.642L345.599 382.825L343.234 384.599L341.482 385.85C340.335 386.669 340.373 388.386 341.555 389.154L349.801 394.515C350.479 394.955 351.354 394.945 352.021 394.489L359.619 389.29Z" fill="#151925"/>
<path d="M366.713 428.315C367.907 427.499 367.866 425.725 366.637 424.964L357.964 419.595C357.278 419.17 356.405 419.199 355.749 419.668L352.693 421.85L350.329 423.624L348.577 424.875C347.43 425.695 347.468 427.411 348.65 428.18L356.896 433.54C357.573 433.981 358.449 433.97 359.116 433.514L366.713 428.315Z" fill="#151925"/>
<path d="M352.524 420.037C353.717 419.22 353.676 417.447 352.447 416.686L343.775 411.317C343.089 410.892 342.215 410.921 341.559 411.39L338.504 413.572L336.139 415.346L334.388 416.597C333.241 417.416 333.278 419.133 334.46 419.901L342.707 425.262C343.384 425.702 344.259 425.692 344.926 425.236L352.524 420.037Z" fill="#151925"/>
<path d="M337.152 411.759C338.345 410.942 338.304 409.169 337.075 408.408L328.403 403.038C327.717 402.614 326.843 402.643 326.187 403.111L323.132 405.294L320.767 407.068L319.016 408.319C317.869 409.138 317.906 410.855 319.088 411.623L327.335 416.984C328.012 417.424 328.887 417.414 329.554 416.958L337.152 411.759Z" fill="#151925"/>
<path d="M321.779 402.298C322.972 401.482 322.932 399.708 321.703 398.947L313.03 393.578C312.344 393.153 311.471 393.182 310.815 393.651L307.759 395.833L305.394 397.607L303.643 398.858C302.496 399.678 302.534 401.395 303.715 402.163L311.962 407.523C312.639 407.964 313.515 407.953 314.181 407.497L321.779 402.298Z" fill="#151925"/>
<path d="M306.407 394.02C307.6 393.203 307.56 391.43 306.331 390.669L297.658 385.299C296.972 384.875 296.099 384.904 295.443 385.373L292.387 387.555L290.022 389.329L288.271 390.58C287.124 391.399 287.162 393.116 288.343 393.884L296.59 399.245C297.267 399.685 298.143 399.675 298.809 399.219L306.407 394.02Z" fill="#151925"/>
<path d="M300.495 405.846C301.688 405.029 301.647 403.256 300.418 402.495L291.745 397.125C291.06 396.701 290.186 396.73 289.53 397.198L286.475 399.381L284.11 401.155L282.358 402.406C281.211 403.225 281.249 404.942 282.431 405.71L290.677 411.071C291.355 411.511 292.23 411.501 292.897 411.045L300.495 405.846Z" fill="#151925"/>
<path d="M314.685 414.124C315.878 413.307 315.837 411.534 314.608 410.773L305.935 405.403C305.25 404.979 304.376 405.008 303.72 405.477L300.665 407.659L298.3 409.433L296.548 410.684C295.401 411.503 295.439 413.22 296.621 413.988L304.867 419.349C305.545 419.789 306.42 419.779 307.087 419.323L314.685 414.124Z" fill="#151925"/>
<path d="M314.685 431.863C315.878 431.046 315.837 429.273 314.608 428.512L305.935 423.142C305.25 422.718 304.376 422.747 303.72 423.215L300.665 425.398L298.3 427.172L296.548 428.423C295.401 429.242 295.439 430.959 296.621 431.727L304.867 437.088C305.545 437.528 306.42 437.518 307.087 437.062L314.685 431.863Z" fill="#151925"/>
<path d="M345.429 431.863C346.622 431.046 346.582 429.273 345.353 428.512L336.68 423.142C335.994 422.718 335.121 422.747 334.465 423.215L331.409 425.398L329.044 427.172L327.293 428.423C326.146 429.242 326.184 430.959 327.365 431.727L335.612 437.088C336.289 437.528 337.165 437.518 337.831 437.062L345.429 431.863Z" fill="#151925"/>
<path d="M330.057 423.584C331.25 422.768 331.209 420.994 329.98 420.233L321.307 414.864C320.622 414.44 319.748 414.468 319.092 414.937L316.037 417.12L313.672 418.894L311.92 420.145C310.773 420.964 310.811 422.681 311.993 423.449L320.239 428.81C320.917 429.25 321.792 429.24 322.459 428.784L330.057 423.584Z" fill="#151925"/>
<path d="M300.274 423.012C301.534 422.21 301.502 420.36 300.215 419.602L230.797 378.731C230.136 378.342 229.311 378.365 228.673 378.79L219.937 384.615C218.714 385.43 218.759 387.243 220.022 387.996L251.001 406.476L288.966 428.913C289.614 429.296 290.422 429.282 291.057 428.878L300.274 423.012Z" fill="#151925"/>
<path d="M385.633 422.402C386.826 421.585 386.785 419.812 385.556 419.051L376.884 413.682C376.198 413.257 375.324 413.286 374.668 413.755L371.613 415.937L369.248 417.711L367.496 418.962C366.35 419.781 366.387 421.498 367.569 422.266L375.815 427.627C376.493 428.067 377.368 428.057 378.035 427.601L385.633 422.402Z" fill="#151925"/>
<path d="M404.465 433.105C405.68 432.274 405.61 430.458 404.335 429.723L392.83 423.085C392.151 422.693 391.306 422.734 390.668 423.19L387.577 425.398L385.212 427.172L384.347 427.863C383.303 428.699 383.357 430.303 384.455 431.067L394.721 438.209C395.403 438.684 396.307 438.687 396.993 438.218L404.465 433.105Z" fill="#151925"/>
<path d="M377.017 449.648C378.305 448.829 378.237 446.927 376.893 446.201L351.28 432.369C350.686 432.048 349.971 432.049 349.377 432.37L339.395 437.778C337.996 438.535 337.999 440.543 339.399 441.297L365.85 455.542C366.488 455.885 367.261 455.857 367.872 455.468L377.017 449.648Z" fill="#151925"/>
<path d="M428.85 417.026C429.456 416.622 429.441 415.727 428.822 415.343L418.275 408.814C417.943 408.608 417.52 408.615 417.194 408.832L411.929 412.343C411.323 412.747 411.338 413.642 411.957 414.025L422.504 420.554C422.837 420.761 423.259 420.753 423.585 420.536L428.85 417.026Z" fill="#151925"/>
<path d="M414.07 408.522C414.675 408.119 414.66 407.223 414.041 406.84L403.495 400.311C403.162 400.105 402.739 400.112 402.414 400.329L397.148 403.84C396.542 404.243 396.557 405.139 397.176 405.522L407.723 412.051C408.056 412.257 408.478 412.25 408.804 412.033L414.07 408.522Z" fill="#151925"/>
<path d="M398.698 400.244C399.303 399.84 399.288 398.945 398.669 398.562L388.123 392.032C387.79 391.826 387.367 391.833 387.042 392.051L381.776 395.561C381.17 395.965 381.185 396.86 381.804 397.244L392.351 403.773C392.684 403.979 393.106 403.972 393.432 403.755L398.698 400.244Z" fill="#151925"/>
<path d="M383.325 390.784C383.931 390.38 383.916 389.485 383.297 389.101L372.751 382.572C372.418 382.366 371.995 382.373 371.669 382.59L366.404 386.101C365.798 386.505 365.813 387.4 366.432 387.783L376.979 394.313C377.312 394.519 377.734 394.511 378.06 394.294L383.325 390.784Z" fill="#151925"/>
<path d="M383.325 390.784C383.931 390.38 383.916 389.485 383.297 389.101L372.751 382.572C372.418 382.366 371.995 382.373 371.669 382.59L366.404 386.101C365.798 386.505 365.813 387.4 366.432 387.783L376.979 394.313C377.312 394.519 377.734 394.511 378.06 394.294L383.325 390.784Z" fill="#151925"/>
<path d="M352.581 371.862C353.187 371.458 353.172 370.563 352.553 370.18L342.006 363.651C341.674 363.445 341.251 363.452 340.925 363.669L335.66 367.179C335.054 367.583 335.069 368.478 335.688 368.862L346.235 375.391C346.568 375.597 346.99 375.59 347.316 375.373L352.581 371.862Z" fill="#151925"/>
<path d="M367.953 381.323C368.559 380.919 368.544 380.024 367.925 379.641L357.379 373.111C357.046 372.905 356.623 372.912 356.297 373.13L351.032 376.64C350.426 377.044 350.441 377.939 351.06 378.322L361.607 384.852C361.94 385.058 362.362 385.051 362.688 384.834L367.953 381.323Z" fill="#151925"/>
<path d="M337.209 362.402C337.815 361.998 337.8 361.103 337.181 360.719L326.634 354.19C326.302 353.984 325.879 353.991 325.553 354.208L320.288 357.719C319.682 358.123 319.697 359.018 320.316 359.401L330.863 365.93C331.196 366.137 331.618 366.129 331.944 365.912L337.209 362.402Z" fill="#151925"/>
<path d="M321.837 354.124C322.443 353.72 322.428 352.824 321.809 352.441L311.262 345.912C310.929 345.706 310.507 345.713 310.181 345.93L304.916 349.441C304.31 349.845 304.325 350.74 304.944 351.123L315.491 357.652C315.823 357.858 316.246 357.851 316.572 357.634L321.837 354.124Z" fill="#151925"/>
<path d="M321.837 354.124C322.443 353.72 322.428 352.824 321.809 352.441L311.262 345.912C310.929 345.706 310.507 345.713 310.181 345.93L304.916 349.441C304.31 349.845 304.325 350.74 304.944 351.123L315.491 357.652C315.823 357.858 316.246 357.851 316.572 357.634L321.837 354.124Z" fill="#151925"/>
<path d="M260.348 318.646C260.954 318.242 260.939 317.347 260.32 316.964L249.774 310.434C249.441 310.228 249.018 310.235 248.692 310.453L243.427 313.963C242.821 314.367 242.836 315.262 243.455 315.645L254.002 322.175C254.335 322.381 254.757 322.374 255.083 322.157L260.348 318.646Z" fill="#151925"/>
<path d="M244.976 310.368C245.582 309.964 245.567 309.069 244.948 308.686L234.401 302.156C234.069 301.95 233.646 301.957 233.32 302.175L228.055 305.685C227.449 306.089 227.464 306.984 228.083 307.368L238.63 313.897C238.963 314.103 239.385 314.096 239.711 313.879L244.976 310.368Z" fill="#151925"/>
<path d="M229.604 300.908C230.21 300.504 230.195 299.609 229.576 299.225L219.029 292.696C218.697 292.49 218.274 292.497 217.948 292.714L212.683 296.225C212.077 296.629 212.092 297.524 212.711 297.907L223.258 304.437C223.591 304.643 224.013 304.635 224.339 304.418L229.604 300.908Z" fill="#151925"/>
<path d="M214.232 292.629C214.838 292.225 214.823 291.33 214.204 290.947L203.657 284.418C203.324 284.212 202.902 284.219 202.576 284.436L197.311 287.947C196.705 288.35 196.72 289.246 197.339 289.629L207.886 296.158C208.218 296.364 208.641 296.357 208.967 296.14L214.232 292.629Z" fill="#151925"/>
<path d="M276.903 328.107C277.509 327.703 277.494 326.808 276.875 326.424L266.328 319.895C265.995 319.689 265.573 319.696 265.247 319.913L259.982 323.424C259.376 323.828 259.391 324.723 260.01 325.106L270.557 331.636C270.889 331.842 271.312 331.834 271.638 331.617L276.903 328.107Z" fill="#151925"/>
<path d="M292.275 336.385C292.881 335.981 292.866 335.086 292.247 334.702L281.7 328.173C281.367 327.967 280.945 327.974 280.619 328.191L275.354 331.702C274.748 332.106 274.763 333.001 275.382 333.384L285.929 339.914C286.261 340.12 286.684 340.113 287.01 339.895L292.275 336.385Z" fill="#151925"/>
<path d="M306.465 345.845C307.071 345.442 307.056 344.546 306.437 344.163L295.89 337.634C295.557 337.428 295.135 337.435 294.809 337.652L289.544 341.163C288.938 341.566 288.953 342.462 289.572 342.845L300.119 349.374C300.451 349.58 300.874 349.573 301.2 349.356L306.465 345.845Z" fill="#151925"/>
<path d="M200.265 332.499C201.557 331.724 201.561 329.853 200.272 329.073L181.65 317.801C181.029 317.425 180.253 317.415 179.622 317.775L171.219 322.578C169.886 323.34 169.873 325.257 171.195 326.037L190.261 337.282C190.893 337.655 191.678 337.652 192.306 337.275L200.265 332.499Z" fill="#151925"/>
<g opacity="0.8">
<path d="M254.977 85L463.458 202.5V227L254.977 110V85Z" fill="#A8A8A8"/>
<path d="M253.977 217L456.958 331.5V356L253.977 242V217Z" fill="#949494"/>
<path d="M254.977 143L379.466 209.5L372.966 275L254.977 209.5V143Z" fill="#9C9C9C"/>
<path d="M253.977 120.5L461.958 235.5V247.5L253.977 131.5V120.5Z" fill="#787878"/>
<path d="M385.965 213.665L459.958 255.5V321L379.965 279.165L385.965 213.665Z" fill="#F57FA9" fill-opacity="0.8"/>
</g>
</svg>
